<?xml version="1.0" standalone="no"?>
<!DOCTYPE svg PUBLIC "-//W3C//DTD SVG 20010904//EN" "http://www.w3.org/TR/2001/REC-SVG-20010904/DTD/svg10.dtd">
<svg version="1.0" xmlns="http://www.w3.org/2000/svg" width="900.000000pt" height="852.000000pt" viewBox="0 0 900.000000 852.000000" preserveAspectRatio="xMidYMid meet">
	<metadata>
		Created by potrace 1.10, written by Peter Selinger 2001-2011
	</metadata>
	<g transform="translate(0.000000,852.000000) scale(0.100000,-0.100000)" fill="#000000" stroke="none">
		<path d="M0 8420 c0 -75 3 -101 11 -93 12 12 14 65 5 137 -11 81 -16 66 -16
-44z" />
		<path d="M4900 8505 c0 -8 9 -15 20 -15 11 0 20 7 20 15 0 8 -9 15 -20 15 -11
0 -20 -7 -20 -15z" />
		<path d="M7236 8483 c5 -21 9 -92 9 -158 1 -164 0 -160 41 -184 19 -12 37 -21
39 -21 10 0 -2 171 -13 182 -7 7 -12 33 -12 58 0 25 -5 51 -12 58 -9 9 -9 15
0 24 7 7 12 27 12 45 0 31 -2 33 -36 33 l-37 0 9 -37z" />
		<path d="M7480 8510 c0 -6 11 -16 25 -22 14 -6 25 -15 25 -19 0 -9 63 13 72
26 16 21 6 25 -57 25 -38 0 -65 -4 -65 -10z" />
		<path d="M8066 8438 c6 -116 19 -460 26 -728 4 -147 23 -136 25 15 1 66 3 183
4 260 2 110 -5 453 -10 523 -1 6 -12 12 -26 12 -24 0 -24 0 -19 -82z" />
		<path d="M8214 8483 c-4 -20 -1 -79 6 -130 7 -52 9 -109 5 -130 -8 -40 -7
-230 2 -323 2 -30 4 -64 4 -75 0 -11 0 -36 1 -55 1 -50 1 -161 -1 -190 -1 -14
3 -59 8 -100 5 -41 10 -128 10 -192 1 -104 3 -120 21 -138 33 -33 26 -50 -20
-50 -48 0 -50 -9 -10 -38 17 -13 30 -31 30 -42 0 -11 6 -37 14 -57 16 -45 33
-135 42 -222 6 -52 5 -63 -7 -59 -8 3 -17 22 -21 44 -8 51 -33 117 -46 122 -5
1 -12 -4 -15 -12 -10 -24 13 -230 29 -258 8 -14 17 -54 21 -88 3 -35 13 -68
22 -77 12 -12 15 -32 12 -78 -3 -61 -2 -63 27 -77 l29 -15 -4 46 c-5 53 18 98
37 71 5 -8 10 -34 10 -57 0 -23 4 -44 9 -47 19 -12 35 -175 20 -214 -9 -23 -6
-35 17 -79 26 -47 27 -55 16 -86 -18 -49 -15 -64 18 -99 27 -27 30 -37 26 -72
-16 -131 -16 -152 -1 -188 8 -21 15 -47 15 -59 0 -13 7 -30 15 -39 12 -13 13
-35 8 -113 -5 -84 -8 -97 -24 -97 -21 0 -33 -15 -24 -30 4 -7 12 -7 25 0 16 8
19 5 25 -20 4 -16 11 -32 16 -35 12 -8 11 -62 -1 -70 -7 -4 -8 -28 -4 -64 8
-72 -8 -151 -41 -199 -31 -45 -31 -64 -3 -103 19 -26 21 -33 10 -62 -7 -19
-12 -43 -12 -56 0 -12 -7 -24 -15 -27 -20 -8 -19 -38 1 -54 26 -23 37 -50 24
-65 -8 -10 -8 -19 0 -34 15 -28 30 -26 30 3 0 24 44 63 54 47 3 -5 27 -11 53
-14 27 -4 72 -11 101 -16 43 -8 62 -7 93 5 31 13 45 14 70 5 55 -19 59 -16 59
45 l0 55 -57 -6 c-32 -4 -83 -10 -113 -15 -30 -5 -95 -10 -145 -12 l-90 -3 -3
47 c-2 38 1 49 18 61 20 14 21 17 6 39 -11 17 -13 33 -6 63 28 131 39 538 19
708 -6 49 -12 112 -14 140 -4 67 -22 199 -34 257 -5 25 -15 74 -22 110 -6 36
-18 99 -25 140 -8 41 -21 120 -30 175 -9 55 -24 116 -34 135 -10 19 -24 53
-30 75 -7 22 -24 60 -38 84 -23 42 -25 55 -27 190 -1 80 -7 279 -13 441 -6
162 -14 412 -18 555 -3 143 -7 285 -8 315 -1 30 -4 123 -5 205 -2 83 -6 183
-9 223 l-5 72 -48 0 c-48 0 -48 0 -55 -37z m172 -2018 c4 -8 3 -27 -1 -43 -7
-25 -8 -25 -15 -7 -12 29 -12 65 0 65 6 0 13 -7 16 -15z" />
		<path d="M8824 8438 c8 -98 13 -312 22 -833 7 -394 8 -449 18 -675 3 -74 8
-297 11 -495 3 -198 7 -407 10 -465 18 -363 31 -1260 20 -1302 -7 -28 -7 -28
44 -28 l51 0 0 960 c0 943 0 960 -20 980 -17 17 -19 32 -18 132 1 153 -11
1118 -18 1463 -4 154 -6 295 -5 313 l1 32 -61 0 -62 0 7 -82z m163 -1970 c-2
-13 -4 -5 -4 17 -1 22 1 32 4 23 2 -10 2 -28 0 -40z" />
		<path d="M6421 8451 c-1 -24 2 -32 9 -25 7 7 7 19 1 35 -9 23 -10 22 -10 -10z" />
		<path d="M6698 8383 c-10 -2 -18 -13 -18 -24 0 -18 6 -20 48 -17 39 3 47 6 47
23 0 15 -7 20 -30 22 -16 0 -38 -1 -47 -4z" />
		<path d="M6410 8345 c0 -9 5 -15 11 -13 6 2 11 8 11 13 0 5 -5 11 -11 13 -6 2
-11 -4 -11 -13z" />
		<path d="M7907 8354 c-8 -8 1 -24 14 -24 5 0 9 7 9 15 0 15 -12 20 -23 9z" />
		<path d="M6862 8319 c2 -6 8 -10 13 -10 5 0 11 4 13 10 2 6 -4 11 -13 11 -9 0
-15 -5 -13 -11z" />
		<path d="M6840 8251 c0 -12 5 -21 10 -21 6 0 10 6 10 14 0 8 -4 18 -10 21 -5
3 -10 -3 -10 -14z" />
		<path d="M6573 8253 c-16 -6 -17 -39 -3 -48 6 -4 8 -21 5 -39 -5 -23 -2 -36 9
-45 14 -12 16 -10 16 16 0 16 9 36 20 46 21 17 24 34 14 61 -6 15 -36 20 -61
9z" />
		<path d="M5057 8233 c-12 -11 -8 -23 8 -23 8 0 15 7 15 15 0 16 -12 20 -23 8z" />
		<path d="M4825 8200 c-7 -12 2 -30 16 -30 12 0 12 27 0 35 -5 3 -12 1 -16 -5z" />
		<path d="M8645 8179 c-4 -6 -1 -15 6 -20 20 -13 54 -6 54 11 0 18 -50 26 -60
9z" />
		<path d="M6950 8157 c-22 -11 -83 -82 -91 -106 -2 -6 -15 -12 -29 -13 -18 -2
-28 4 -38 25 -7 15 -18 27 -25 27 -24 -1 -66 -46 -81 -87 -9 -24 -23 -62 -32
-85 -14 -37 -15 -54 -5 -118 6 -41 10 -115 8 -164 -3 -88 13 -152 42 -170 6
-4 11 -21 11 -37 0 -31 25 -89 38 -89 14 0 112 -101 112 -116 0 -8 -9 -14 -21
-14 -16 0 -20 -4 -14 -17 20 -52 16 -70 -34 -165 -44 -83 -51 -105 -51 -153 0
-30 3 -55 7 -55 3 0 15 8 26 17 18 17 20 17 42 -9 14 -17 25 -46 29 -81 4 -31
13 -58 20 -60 16 -7 37 -80 36 -132 0 -98 2 -120 9 -130 12 -14 24 -92 22
-142 -1 -23 3 -45 9 -48 6 -4 8 -28 4 -60 -6 -47 -4 -53 12 -57 15 -3 19 -13
21 -56 1 -33 8 -61 18 -72 12 -13 14 -28 9 -59 -7 -42 4 -91 32 -158 8 -17 14
-59 14 -93 0 -59 11 -97 33 -112 7 -4 6 -17 -3 -37 -8 -20 -10 -51 -6 -88 3
-32 10 -89 14 -128 4 -38 14 -81 21 -94 7 -13 11 -37 8 -55 -5 -34 5 -102 30
-211 9 -38 16 -98 16 -133 0 -34 3 -65 8 -67 4 -3 5 -28 2 -55 -3 -28 -1 -55
4 -62 6 -7 13 -25 17 -40 4 -19 13 -28 26 -28 22 0 22 1 25 150 1 41 5 98 10
127 6 45 5 52 -13 62 -16 8 -21 24 -25 68 -5 54 -13 105 -38 243 -25 136 -32
222 -23 284 6 36 6 64 1 63 -4 -1 -19 18 -33 43 -20 37 -24 59 -24 130 -1 47
-5 105 -11 130 -5 25 -13 99 -18 165 -7 112 -47 331 -73 400 -6 17 -12 51 -14
76 -1 26 -6 55 -12 65 -5 11 -12 43 -16 73 -4 30 -19 75 -34 99 -24 42 -26 56
-28 166 -2 116 12 202 37 231 5 5 9 17 9 26 0 13 -7 17 -27 16 -36 -3 -42 25
-8 43 23 12 29 11 63 -9 99 -59 97 -59 160 -26 68 37 169 134 177 172 4 16 10
38 15 51 13 31 -12 29 -44 -3 -37 -37 -66 -32 -99 16 -17 23 -36 39 -45 37
-24 -3 -84 31 -76 43 3 6 29 9 58 7 50 -3 51 -3 54 28 3 34 -20 62 -58 66 -19
2 -25 -3 -32 -29 -11 -42 -20 -46 -64 -28 -20 8 -42 15 -49 15 -20 0 -27 -31
-10 -50 21 -24 19 -45 -12 -91 -21 -31 -24 -42 -14 -52 10 -9 14 -9 21 3 24
42 36 49 85 50 77 3 80 2 109 -25 48 -44 27 -91 -60 -135 -50 -26 -59 -25
-100 6 -24 19 -42 25 -61 21 -23 -4 -36 3 -79 49 -29 30 -59 54 -68 54 -26 0
-39 37 -25 72 9 23 10 41 1 77 -10 42 -15 138 -14 285 0 106 35 136 156 136
63 0 78 3 95 21 27 29 53 21 66 -22 18 -63 65 -109 112 -109 31 0 44 -8 86
-51 53 -55 86 -118 87 -161 0 -16 3 -28 8 -28 14 1 50 37 53 54 6 26 23 19 32
-12 12 -42 0 -71 -31 -78 -54 -11 -53 -10 -46 -71 7 -72 27 -125 62 -169 32
-40 39 -42 44 -11 2 17 9 21 27 19 34 -3 54 -23 90 -91 23 -43 31 -72 31 -109
0 -42 7 -60 41 -111 49 -74 50 -110 4 -123 -44 -13 -133 -1 -163 22 -34 27
-55 25 -89 -9 -36 -35 -62 -142 -53 -220 l5 -53 37 41 c20 23 46 41 57 41 25
0 34 14 41 65 4 33 9 41 29 43 32 5 41 -12 41 -76 0 -49 2 -53 23 -50 20 3 22
-2 25 -49 3 -45 -1 -56 -26 -85 -16 -18 -37 -48 -46 -67 -17 -32 -17 -34 2
-55 19 -20 20 -35 19 -356 -1 -331 10 -502 36 -560 6 -14 16 -152 23 -310 7
-157 20 -341 29 -410 9 -69 19 -148 22 -176 l5 -52 -39 -6 c-21 -3 -74 -8
-118 -11 -141 -9 -255 -28 -255 -42 0 -8 8 -16 18 -19 9 -3 26 -10 36 -16 40
-21 71 -26 84 -12 7 8 32 14 55 14 133 2 192 11 209 33 10 12 18 28 18 35 0 6
6 12 13 12 6 1 20 17 29 37 13 28 15 41 6 57 -6 11 -12 52 -14 90 -1 39 -6
118 -9 176 -4 58 -8 137 -9 175 0 39 -4 75 -7 80 -13 20 -20 123 -10 130 17
10 14 130 -3 144 -8 7 -16 43 -21 94 -5 69 -3 90 11 120 18 37 18 38 -4 53
-18 12 -22 25 -22 64 0 44 2 49 30 59 33 11 39 35 14 62 -12 14 -15 38 -13
121 1 56 1 142 0 190 -2 94 6 123 36 123 10 0 17 6 15 14 -1 7 4 18 13 25 14
10 12 15 -15 41 -16 16 -30 34 -30 41 0 7 -8 14 -17 16 -17 3 -25 37 -24 98 0
14 1 55 1 91 0 45 5 71 14 78 8 7 17 34 21 61 8 59 41 96 78 86 14 -3 32 0 43
8 17 13 17 15 -14 44 -36 33 -37 41 -20 89 11 31 10 35 -25 71 -20 20 -50 68
-68 106 -45 101 -72 132 -118 140 -50 8 -70 30 -48 54 14 15 14 21 2 42 -47
81 -57 126 -30 136 17 7 35 64 35 110 0 20 -9 39 -25 54 -30 28 -32 65 -5 80
28 15 16 30 -24 30 -23 0 -41 -9 -61 -30 l-29 -30 -30 20 c-19 11 -33 30 -36
47 -3 20 -15 32 -37 42 -30 13 -33 18 -30 55 2 36 -1 41 -20 44 -24 3 -33 -21
-13 -33 16 -10 12 -23 -11 -30 -15 -5 -27 1 -47 22 -113 121 -142 156 -142
168 0 18 -26 19 -60 2z m458 -424 c-5 -23 -23 -20 -26 4 -3 18 0 21 13 17 9
-4 15 -13 13 -21z m232 -1248 c0 -8 -4 -15 -10 -15 -5 0 -10 7 -10 15 0 8 5
15 10 15 6 0 10 -7 10 -15z" />
		<path d="M5705 8141 c-7 -12 29 -33 39 -24 3 3 6 12 6 20 0 15 -36 18 -45 4z" />
		<path d="M4240 8120 c-13 -9 -12 -12 4 -25 23 -17 42 -5 33 19 -7 18 -16 20
-37 6z" />
		<path d="M7361 8091 c-11 -7 -8 -16 15 -45 l29 -36 8 31 c12 46 -16 73 -52 50z" />
		<path d="M5227 8004 c-16 -8 -26 -21 -24 -27 8 -25 127 -30 127 -5 0 45 -50
61 -103 32z" />
		<path d="M5102 7978 c5 -15 67 -18 71 -3 1 6 -15 11 -37 13 -28 3 -37 0 -34
-10z" />
		<path d="M5355 7976 c-19 -14 -19 -15 -1 -35 10 -11 28 -23 40 -27 11 -4 40
-20 64 -35 24 -16 48 -27 53 -24 11 8 12 65 1 65 -5 0 -25 16 -45 35 -39 38
-79 45 -112 21z" />
		<path d="M4945 7950 c-9 -27 1 -40 30 -40 30 0 39 14 25 40 -14 26 -47 26 -55
0z" />
		<path d="M40 7925 c0 -9 5 -15 11 -13 14 5 14 21 0 26 -6 2 -11 -4 -11 -13z" />
		<path d="M4883 7861 c-6 -18 -7 -33 -2 -37 12 -7 21 19 17 47 -3 19 -4 18 -15
-10z" />
		<path d="M5547 7883 c-4 -6 -4 -26 0 -47 4 -26 12 -38 27 -42 12 -3 29 -18 38
-34 23 -40 48 -40 48 0 0 43 20 80 47 86 13 4 22 11 20 18 -7 20 -40 19 -56
-2 -9 -11 -34 -22 -58 -26 -37 -5 -43 -4 -43 11 0 24 -16 48 -23 36z" />
		<path d="M7640 7845 c-17 -20 -6 -31 21 -19 18 8 19 11 6 22 -11 10 -17 9 -27
-3z" />
		<path d="M7008 7820 c-22 -9 -58 -34 -58 -41 0 -4 9 -9 20 -12 14 -4 20 -14
20 -35 0 -52 16 -82 45 -82 38 0 85 27 85 49 0 22 22 43 41 39 7 -2 15 5 17
15 2 12 -5 19 -26 23 -20 4 -32 14 -36 28 -4 17 -13 21 -50 21 -25 0 -51 -2
-58 -5z" />
		<path d="M5092 7808 c5 -15 28 -18 29 -3 0 6 -7 12 -17 13 -10 3 -15 -1 -12
-10z" />
		<path d="M5230 7818 c0 -3 7 -19 15 -34 20 -40 19 -51 -10 -80 -31 -31 -27
-40 24 -48 47 -7 125 -63 129 -93 3 -19 -1 -20 -66 -15 -72 5 -112 -7 -112
-33 0 -8 8 -19 19 -24 10 -6 21 -21 24 -33 4 -13 16 -34 27 -46 17 -18 28 -22
58 -17 78 13 84 15 74 28 -16 18 -27 117 -14 117 6 0 17 13 25 28 13 27 12 32
-18 78 -18 28 -47 61 -65 75 -18 13 -50 42 -71 63 -22 22 -39 37 -39 34z" />
		<path d="M4847 7783 c-7 -12 4 -73 13 -73 11 0 20 26 20 56 0 23 -23 34 -33
17z" />
		<path d="M6843 7760 c-12 -5 -29 -20 -39 -34 -15 -24 -15 -28 0 -51 19 -28 62
-43 85 -28 16 10 35 88 26 111 -5 14 -40 15 -72 2z" />
		<path d="M5726 7732 c-4 -6 -18 -12 -31 -12 -12 0 -26 -7 -29 -16 -10 -26 -7
-84 4 -84 6 0 24 -27 39 -60 47 -99 73 -118 69 -50 -1 22 1 42 5 46 3 4 -1 20
-9 35 -8 16 -20 57 -27 92 -8 37 -16 57 -21 49z" />
		<path d="M4757 7703 c-13 -12 -7 -43 8 -43 9 0 15 9 15 25 0 24 -10 32 -23 18z" />
		<path d="M26 7691 c-7 -11 5 -130 13 -136 4 -2 13 0 21 5 11 7 12 14 2 35 -7
14 -12 44 -12 65 0 37 -12 52 -24 31z" />
		<path d="M5160 7665 c0 -14 5 -25 10 -25 6 0 10 11 10 25 0 14 -4 25 -10 25
-5 0 -10 -11 -10 -25z" />
		<path d="M4825 7642 c-6 -4 -16 -29 -23 -57 -7 -27 -20 -57 -28 -66 -22 -24
-9 -89 17 -89 30 0 53 48 60 124 7 71 -3 104 -26 88z" />
		<path d="M4372 7537 c-15 -18 9 -101 31 -105 13 -3 15 7 14 55 -2 44 -6 58
-18 61 -9 1 -21 -3 -27 -11z" />
		<path d="M4290 7534 c0 -11 32 -44 43 -44 14 0 6 21 -10 27 -10 4 -21 11 -25
17 -6 8 -8 8 -8 0z" />
		<path d="M5483 7505 c39 -37 57 -44 57 -22 0 17 -54 57 -77 57 -13 0 -7 -9 20
-35z" />
		<path d="M3213 7523 c-7 -2 -13 -18 -13 -33 l0 -29 -77 -3 c-43 -2 -91 1 -107
6 -21 6 -30 5 -37 -5 -6 -10 -9 -11 -9 -1 0 26 -36 10 -77 -35 -42 -48 -80
-134 -67 -155 4 -6 10 -43 14 -82 4 -39 14 -87 23 -106 9 -19 17 -50 19 -68
l3 -33 34 30 c19 17 38 31 43 31 19 0 5 46 -31 98 -37 54 -38 60 -35 122 4 81
23 150 40 150 18 0 27 -18 34 -65 l5 -40 40 53 c45 60 67 69 131 53 42 -11 47
-10 75 14 51 42 132 30 204 -30 28 -23 61 -34 53 -17 -2 4 -12 26 -22 49 -15
35 -28 48 -77 73 -57 29 -129 39 -166 23z" />
		<path d="M3474 7519 c-3 -5 7 -26 23 -46 15 -19 37 -47 47 -60 14 -18 20 -43
21 -89 1 -57 5 -68 31 -94 50 -50 62 -67 84 -117 17 -39 23 -45 30 -32 6 10
29 20 55 23 54 9 51 20 -9 35 -25 6 -57 22 -72 34 l-27 24 19 46 c10 26 24 47
30 47 7 0 15 7 18 16 5 14 1 16 -22 11 -24 -5 -35 1 -70 38 -48 51 -54 80 -17
89 33 8 32 24 -2 32 -16 4 -37 12 -48 19 -36 22 -84 34 -91 24z" />
		<path d="M5094 7505 c-47 -28 -59 -57 -41 -95 16 -33 79 -41 109 -14 16 16 18
26 12 69 -6 44 -17 65 -34 65 -3 0 -24 -11 -46 -25z" />
		<path d="M8099 7525 c-4 -3 -4 -71 -1 -150 4 -124 3 -148 -12 -170 -16 -25
-16 -26 9 -35 15 -6 37 -10 50 -10 23 0 24 2 19 53 -3 28 -11 68 -17 87 -6 19
-10 62 -9 95 2 58 -24 145 -39 130z" />
		<path d="M3020 7504 c0 -9 5 -14 12 -12 18 6 21 28 4 28 -9 0 -16 -7 -16 -16z" />
		<path d="M1471 7484 c-27 -35 -34 -60 -22 -82 5 -10 6 -24 1 -32 -12 -19 -3
-30 21 -30 17 0 20 -5 14 -28 -5 -24 -2 -30 20 -40 39 -18 50 -15 79 22 36 48
90 80 113 67 10 -5 36 -13 58 -18 39 -8 40 -9 53 -68 7 -33 18 -71 23 -84 l10
-24 24 23 c14 13 25 29 25 37 0 7 16 19 35 27 19 8 35 22 35 30 0 20 -37 31
-55 16 -12 -10 -15 -10 -15 -1 0 7 -15 28 -32 46 -18 19 -43 45 -55 57 -12 13
-36 34 -53 47 -29 22 -35 23 -67 12 -27 -10 -37 -10 -49 0 -12 9 -20 9 -39 -1
-31 -17 -85 3 -85 31 0 26 -15 24 -39 -7z" />
		<path d="M3930 7501 c0 -10 50 -25 57 -17 3 2 2 9 -2 15 -8 13 -55 15 -55 2z" />
		<path d="M4074 7485 c-7 -18 2 -45 15 -45 5 0 11 7 15 15 7 18 -2 45 -15 45
-5 0 -12 -7 -15 -15z" />
		<path d="M3740 7465 c0 -19 11 -19 36 0 18 14 18 14 -8 15 -18 0 -28 -5 -28
-15z" />
		<path d="M4956 7428 c-10 -30 -14 -169 -6 -202 4 -20 16 -49 26 -64 23 -33 43
-112 44 -168 0 -54 28 -144 43 -144 13 0 37 -73 37 -110 0 -26 8 -25 53 6 l38
26 -36 31 c-37 32 -41 43 -65 170 -5 26 -23 76 -39 109 -17 34 -31 70 -31 80
0 10 -11 40 -25 66 -28 53 -33 110 -10 118 18 7 20 65 3 82 -15 15 -28 15 -32
0z" />
		<path d="M1324 7422 c-6 -4 -14 -19 -18 -34 -5 -21 -16 -30 -46 -39 -44 -13
-63 -37 -75 -88 -7 -34 -7 -34 24 -28 39 8 39 3 1 -40 -29 -33 -30 -37 -24
-96 8 -74 28 -127 47 -127 11 0 15 17 15 75 1 46 7 86 17 104 11 22 14 45 9
84 -6 47 -3 59 16 85 13 17 36 36 51 42 16 7 34 18 40 26 22 27 -26 57 -57 36z" />
		<path d="M5840 7419 c0 -7 -10 -9 -25 -5 -23 6 -25 4 -19 -18 3 -13 1 -27 -4
-30 -13 -8 8 -56 24 -56 20 0 44 47 44 85 0 19 -4 35 -10 35 -5 0 -10 -5 -10
-11z" />
		<path d="M4735 7389 c-9 -14 3 -79 21 -106 9 -14 10 -24 4 -28 -6 -4 -9 -23
-8 -42 2 -23 -2 -38 -11 -41 -9 -3 -11 1 -6 17 8 26 -9 28 -53 5 -27 -13 -32
-21 -32 -50 0 -33 1 -34 43 -34 31 0 49 6 62 20 25 28 35 25 35 -10 0 -48 17
-35 23 17 3 34 1 50 -9 58 -14 11 -9 55 7 55 5 0 9 31 9 69 0 54 -4 70 -16 75
-25 9 -62 7 -69 -5z" />
		<path d="M41 7371 c-8 -14 -7 -22 3 -30 15 -13 26 -5 26 20 0 26 -17 32 -29
10z" />
		<path d="M5605 7361 c-6 -10 32 -51 47 -51 14 0 9 28 -8 44 -18 18 -30 20 -39
7z" />
		<path d="M4396 7341 c-20 -22 -15 -51 8 -51 16 0 28 38 17 57 -6 11 -11 10
-25 -6z" />
		<path d="M5202 7334 c-30 -21 -28 -40 8 -53 35 -12 38 -30 10 -56 -26 -24 -25
-32 4 -39 13 -3 26 -15 29 -27 7 -25 44 -22 39 3 -1 9 2 19 8 23 13 8 123 -23
132 -38 3 -5 6 1 5 14 0 13 3 47 7 74 8 56 -5 78 -54 87 -14 3 -32 7 -40 9
-18 5 -26 -36 -11 -55 14 -17 4 -26 -31 -26 -31 0 -36 17 -16 50 11 16 9 22
-7 34 -26 20 -55 20 -83 0z" />
		<path d="M5586 7264 c-19 -19 -19 -19 -4 -47 12 -24 36 -136 44 -207 9 -84 12
-90 45 -90 41 0 46 21 19 83 -17 40 -24 78 -28 165 l-5 112 -28 0 c-15 0 -35
-7 -43 -16z" />
		<path d="M7479 7261 c21 -38 13 -86 -16 -107 -39 -28 -61 -35 -89 -28 -28 7
-75 75 -56 82 13 4 17 62 5 62 -5 0 -18 -35 -31 -78 -25 -83 -44 -124 -61
-130 -6 -2 -11 3 -11 12 0 20 -19 20 -45 0 -18 -14 -19 -17 -5 -42 9 -15 26
-29 40 -31 14 -1 37 -12 51 -22 31 -22 55 -17 65 13 3 11 21 26 40 34 18 8 38
23 44 33 5 11 20 21 32 23 56 8 94 163 47 188 -19 10 -20 10 -10 -9z" />
		<path d="M50 7246 c0 -14 5 -28 10 -31 6 -4 10 7 10 24 0 17 -4 31 -10 31 -5
0 -10 -11 -10 -24z" />
		<path d="M5804 7228 c3 -21 2 -40 -4 -43 -16 -10 -11 -51 8 -68 25 -23 38 -21
56 5 14 20 14 24 0 40 -11 12 -14 26 -10 45 13 56 13 58 -22 58 -33 0 -34 -1
-28 -37z" />
		<path d="M5103 7244 c-3 -8 -1 -20 6 -27 6 -6 11 -21 11 -34 0 -30 25 -30 41
-1 9 16 9 23 0 26 -6 2 -11 15 -11 28 0 17 -5 24 -20 24 -11 0 -23 -7 -27 -16z" />
		<path d="M3188 7228 c-20 -7 -28 -17 -28 -34 0 -28 33 -40 78 -29 31 7 92 51
92 66 0 12 -107 10 -142 -3z" />
		<path d="M4391 7173 c-27 -28 -31 -37 -20 -44 15 -10 69 43 69 67 0 21 -12 16
-49 -23z" />
		<path d="M1912 7166 c-8 -18 -7 -28 3 -42 15 -21 16 -21 37 23 14 28 14 32 1
37 -24 10 -29 7 -41 -18z" />
		<path d="M1435 7161 c-71 -18 -110 -68 -77 -97 9 -8 36 -30 60 -50 23 -20 42
-44 42 -53 0 -10 -16 -31 -35 -48 -41 -37 -44 -49 -11 -55 33 -7 86 47 86 85
0 30 60 166 74 167 5 0 29 -22 54 -50 27 -30 54 -50 67 -50 24 0 85 58 85 82
0 26 -110 69 -176 68 -22 0 -61 2 -89 4 -27 3 -64 1 -80 -3z" />
		<path d="M3300 7114 c-68 -11 -111 -31 -171 -80 -59 -48 -71 -54 -113 -54 -38
0 -46 -3 -46 -18 0 -45 44 -54 91 -19 l31 22 27 -32 c15 -18 33 -33 39 -33 6
0 16 -9 22 -21 16 -28 34 -19 36 19 4 86 29 104 110 82 51 -15 56 -21 64 -74
4 -33 9 -39 32 -42 14 -1 37 -10 51 -18 23 -16 57 -13 57 4 0 4 -16 18 -36 29
-37 22 -40 35 -19 84 6 14 2 17 -19 17 -30 0 -35 24 -12 56 13 17 12 21 -1 37
-9 9 -34 20 -55 23 -21 4 -41 11 -44 15 -3 5 -8 8 -12 8 -4 -1 -18 -3 -32 -5z" />
		<path d="M3537 7084 c-27 -25 -37 -42 -37 -64 0 -17 3 -30 6 -30 13 0 84 86
84 101 0 30 -14 28 -53 -7z" />
		<path d="M1871 7074 c-27 -34 -27 -90 -1 -129 25 -37 25 -59 1 -99 -24 -41
-38 -151 -17 -143 7 3 24 -2 36 -10 18 -13 21 -22 16 -53 -4 -28 -1 -44 13
-61 10 -13 21 -36 25 -51 4 -17 24 -39 53 -59 43 -30 48 -31 72 -18 31 18 30
33 -1 37 -28 4 -68 40 -68 60 0 8 -8 27 -17 42 -14 24 -15 34 -5 55 7 14 12
36 12 49 0 13 6 28 13 34 12 10 444 28 572 24 39 -1 76 2 83 7 8 4 16 27 19
50 5 40 5 41 -23 41 -16 0 -40 -7 -53 -16 -19 -14 -25 -14 -32 -3 -5 8 -9 20
-9 27 0 20 -17 14 -23 -9 -5 -17 -9 -19 -26 -10 -41 22 -244 28 -315 10 -33
-9 -41 -8 -49 6 -8 15 -11 15 -30 -3 -15 -13 -35 -19 -65 -17 -26 0 -47 -4
-54 -13 -11 -13 -61 -42 -73 -42 -3 0 -5 12 -5 26 0 18 6 28 20 31 24 6 21 29
-4 25 -20 -4 -20 2 0 34 15 21 15 32 4 87 -13 68 -31 117 -42 117 -3 0 -16
-12 -27 -26z" />
		<path d="M4737 7080 c3 -11 9 -20 14 -20 5 0 9 9 9 20 0 11 -6 20 -14 20 -9 0
-12 -7 -9 -20z" />
		<path d="M6977 7066 c-20 -21 -20 -24 -6 -81 12 -47 34 -74 48 -59 9 9 -3 97
-18 138 -7 18 -8 18 -24 2z" />
		<path d="M8088 7060 c-21 -4 -46 -14 -55 -23 -29 -25 -122 -85 -143 -92 -11
-4 -38 -18 -60 -33 -33 -21 -40 -31 -40 -58 0 -22 7 -36 24 -47 21 -14 22 -20
16 -64 -4 -26 -6 -50 -4 -52 9 -10 34 11 34 30 0 19 27 77 41 89 4 3 6 16 5
30 -1 22 5 26 42 35 41 9 43 11 38 37 -4 22 -2 28 12 28 10 0 36 13 58 30 48
36 61 37 104 5 38 -28 65 -19 42 13 -7 9 -22 32 -33 50 -12 17 -26 31 -32 31
-7 -1 -29 -5 -49 -9z" />
		<path d="M3689 7044 c-7 -9 -12 -34 -12 -56 2 -27 -5 -49 -19 -69 -18 -24 -20
-35 -12 -65 12 -48 40 -67 59 -40 8 10 16 23 17 27 4 11 78 16 323 24 276 9
386 14 418 21 16 3 42 0 58 -7 23 -9 33 -9 42 0 6 6 19 11 29 11 16 0 38 27
38 48 0 6 -24 13 -52 16 -72 8 -72 8 -163 -4 -86 -11 -234 -23 -275 -23 -14 0
-72 -4 -130 -9 -159 -15 -222 -17 -257 -6 -45 13 -42 40 7 75 22 15 38 33 36
38 -3 11 -32 11 -58 0 -14 -5 -18 -2 -18 14 0 25 -13 27 -31 5z" />
		<path d="M5932 7044 c-10 -18 -4 -61 9 -69 11 -8 42 54 35 71 -7 19 -33 18
-44 -2z" />
		<path d="M5231 7014 c-26 -29 -31 -42 -28 -72 3 -30 9 -38 27 -40 19 -3 22 0
17 17 -5 21 -5 22 56 25 10 1 22 8 27 16 7 12 12 12 34 1 32 -17 56 -8 56 21
0 18 -12 28 -53 46 -73 31 -99 29 -136 -14z" />
		<path d="M1098 7008 c-3 -61 2 -91 23 -125 18 -29 19 -38 9 -63 -15 -36 -7
-60 20 -60 11 0 20 -7 20 -15 0 -8 6 -15 13 -15 8 0 22 -9 32 -20 22 -25 13
-65 -22 -98 -19 -18 -24 -29 -19 -50 19 -83 18 -88 -12 -145 -29 -55 -29 -73
0 -62 9 4 32 -16 62 -55 26 -33 56 -65 67 -71 16 -8 19 -17 14 -39 -5 -22 1
-38 24 -71 17 -23 31 -46 31 -51 0 -6 9 -23 21 -39 25 -35 18 -49 -25 -49 -30
0 -32 -2 -28 -34 3 -27 -2 -39 -23 -59 l-28 -25 22 -11 c28 -16 38 -8 51 37
17 65 32 78 76 67 38 -10 39 -11 42 -58 4 -59 22 -69 58 -33 21 21 24 29 15
40 -20 23 4 28 32 6 27 -22 31 -20 41 22 4 19 16 30 43 38 21 7 48 19 61 27
13 8 33 13 45 11 18 -2 23 3 25 25 l3 29 -58 -7 c-101 -11 -113 -16 -157 -62
-38 -39 -46 -44 -64 -34 -12 7 -24 26 -28 45 -3 19 -20 52 -38 73 -64 77 -85
110 -76 119 9 9 -1 56 -21 96 -5 10 -9 24 -9 32 0 8 -12 28 -26 45 -14 17 -26
41 -26 53 -1 13 -7 50 -14 83 -7 33 -16 114 -19 180 -3 66 -8 129 -10 140 -2
11 -24 31 -50 45 -39 21 -45 29 -45 57 0 37 -28 113 -41 113 -5 0 -10 -15 -11
-32z" />
		<path d="M5424 7029 c-4 -7 1 -16 10 -21 9 -5 14 -13 11 -19 -4 -5 -3 -18 0
-29 7 -22 35 -26 53 -8 17 17 15 48 -3 48 -8 0 -23 9 -32 20 -20 23 -29 25
-39 9z" />
		<path d="M4826 6958 c-19 -63 -27 -108 -21 -117 9 -16 25 -13 25 4 0 8 11 31
25 51 33 49 33 74 0 74 -14 0 -27 -6 -29 -12z" />
		<path d="M5929 6943 c-8 -11 -22 -22 -31 -26 -10 -3 -18 -16 -18 -27 0 -24 15
-27 24 -3 5 12 9 14 18 5 21 -21 38 -13 38 16 0 42 -14 58 -31 35z" />
		<path d="M60 6921 c0 -17 5 -31 10 -31 6 0 10 11 10 24 0 14 -4 28 -10 31 -6
4 -10 -7 -10 -24z" />
		<path d="M1574 6922 c-26 -21 -38 -105 -22 -154 6 -18 12 -39 14 -45 2 -7 10
-10 19 -7 11 5 13 15 9 43 -5 29 0 51 20 93 14 30 26 62 26 71 0 22 -39 22
-66 -1z" />
		<path d="M2873 6901 c-18 -15 -33 -34 -33 -42 1 -17 34 -59 47 -59 5 0 22 -13
38 -30 30 -31 72 -40 81 -17 7 18 -62 163 -82 171 -19 7 -13 10 -51 -23z" />
		<path d="M4735 6910 c3 -5 15 -10 26 -10 11 0 17 5 14 10 -3 6 -15 10 -26 10
-11 0 -17 -4 -14 -10z" />
		<path d="M5491 6896 c-7 -8 -34 -22 -60 -32 -76 -27 -85 -36 -74 -81 13 -56
53 -56 152 1 24 15 71 88 71 112 0 19 -74 19 -89 0z" />
		<path d="M4634 6889 c-9 -15 12 -33 30 -26 9 4 16 13 16 22 0 17 -35 21 -46 4z" />
		<path d="M6425 6879 c-4 -6 -5 -13 -2 -16 7 -7 27 6 27 18 0 12 -17 12 -25 -2z" />
		<path d="M1701 6828 c-9 -15 -10 -23 -1 -32 11 -11 30 7 30 31 0 21 -16 22
-29 1z" />
		<path d="M5646 6828 c-9 -12 -16 -42 -16 -66 0 -27 -7 -53 -20 -71 -17 -22
-19 -32 -10 -55 14 -38 39 -30 68 21 53 97 33 250 -22 171z" />
		<path d="M8037 6833 c-10 -15 22 -113 47 -145 30 -40 82 -63 90 -41 3 8 2 22
-3 32 -5 9 -7 35 -4 58 3 26 1 43 -7 48 -15 9 -32 -14 -26 -35 3 -8 8 -25 12
-37 5 -18 2 -23 -10 -23 -11 0 -16 7 -14 18 1 10 -10 31 -25 47 -15 17 -27 37
-27 46 0 19 -26 44 -33 32z" />
		<path d="M3261 6811 c-6 -11 -11 -31 -11 -44 0 -14 -7 -30 -15 -37 -19 -15
-19 -36 -2 -43 27 -10 100 11 117 33 15 19 24 22 59 17 22 -3 44 -1 47 5 9 15
-5 23 -39 23 -27 0 -33 4 -37 30 -5 28 -8 30 -57 33 -43 3 -54 0 -62 -17z" />
		<path d="M6982 6818 c-29 -29 -2 -73 40 -63 18 5 31 -1 53 -24 32 -32 63 -39
83 -19 23 23 11 38 -55 69 -38 16 -76 34 -85 40 -22 11 -22 11 -36 -3z" />
		<path d="M1403 6789 c-3 -19 -15 -35 -29 -41 -35 -16 -37 -39 -13 -118 20 -66
23 -71 45 -66 16 4 31 -1 50 -19 30 -28 45 -30 75 -14 16 8 25 7 38 -5 16 -15
21 -14 57 10 70 48 74 74 9 74 -39 0 -47 -4 -57 -25 -10 -23 -12 -23 -24 -7
-8 12 -23 16 -49 13 -26 -2 -40 2 -50 16 -13 17 -14 17 -29 -2 -15 -20 -15
-20 -16 1 0 11 6 26 13 33 10 10 8 16 -10 31 -23 19 -30 40 -14 40 5 0 17 8
27 18 10 9 31 22 47 27 44 14 44 32 1 50 -52 22 -64 19 -71 -16z" />
		<path d="M3133 6807 c-28 -13 -29 -28 -2 -53 17 -16 22 -16 29 -4 12 18 13 57
3 63 -5 3 -18 0 -30 -6z" />
		<path d="M6265 6800 c-10 -17 12 -37 25 -24 8 8 6 15 -4 23 -10 9 -16 9 -21 1z" />
		<path d="M6730 6796 c0 -18 17 -29 30 -21 8 5 7 11 -1 21 -15 18 -29 18 -29 0z" />
		<path d="M76 6763 c7 -42 23 -76 25 -55 5 62 1 87 -15 90 -15 3 -16 -2 -10
-35z" />
		<path d="M2690 6786 c0 -16 37 -28 46 -15 8 14 -5 29 -27 29 -10 0 -19 -6 -19
-14z" />
		<path d="M920 6761 c0 -37 17 -49 38 -27 14 14 14 17 -3 36 -25 28 -35 25 -35
-9z" />
		<path d="M5209 6785 c-1 -3 -1 -17 -2 -32 -1 -25 3 -29 39 -34 55 -10 60 -2
23 37 -29 30 -57 44 -60 29z" />
		<path d="M7262 6753 c-25 -36 -49 -160 -33 -176 13 -13 37 40 47 105 4 23 13
51 21 60 15 16 11 38 -7 38 -5 0 -17 -12 -28 -27z" />
		<path d="M4736 6763 c-11 -11 -6 -23 9 -23 8 0 15 4 15 9 0 13 -16 22 -24 14z" />
		<path d="M5820 6760 c-8 -5 -11 -12 -7 -16 4 -4 13 -2 19 4 15 15 7 24 -12 12z" />
		<path d="M1065 6741 c-3 -5 -1 -12 5 -16 12 -7 30 2 30 16 0 12 -27 12 -35 0z" />
		<path d="M6110 6714 c-22 -20 -40 -42 -40 -49 0 -13 22 -25 43 -25 24 1 59 41
67 75 7 30 5 35 -11 35 -10 0 -37 -16 -59 -36z" />
		<path d="M4338 6735 c-7 -8 -258 -36 -268 -30 -5 3 -38 -1 -71 -10 -50 -12
-68 -13 -94 -4 -18 7 -40 9 -49 6 -16 -6 -16 -9 1 -32 13 -18 24 -23 38 -19
38 12 90 10 107 -3 14 -12 22 -12 59 6 35 17 49 19 74 11 48 -16 444 -5 488
14 19 8 38 12 41 9 2 -3 10 -2 16 2 8 5 5 13 -9 27 -19 17 -23 18 -37 4 -19
-20 -19 -20 -49 0 -18 11 -55 17 -134 19 -60 2 -111 2 -113 0z" />
		<path d="M2784 6695 c-3 -8 -3 -19 1 -25 11 -18 25 -11 25 15 0 27 -17 34 -26
10z" />
		<path d="M8483 6694 c-3 -8 -1 -20 6 -27 8 -8 11 -4 11 16 0 30 -7 35 -17 11z" />
		<path d="M3535 6689 c-4 -6 -4 -27 0 -47 l7 -37 14 25 c18 33 18 70 0 70 -8 0
-18 -5 -21 -11z" />
		<path d="M5310 6671 c0 -29 -22 -61 -41 -61 -6 0 -7 -4 -4 -10 11 -18 40 -10
73 21 37 34 40 54 13 69 -31 16 -41 12 -41 -19z" />
		<path d="M3326 6682 c-12 -12 -5 -40 14 -57 16 -15 22 -16 35 -5 24 20 14 52
-17 61 -15 4 -29 4 -32 1z" />
		<path d="M3657 6683 c-4 -3 -7 -17 -7 -30 0 -33 -16 -61 -64 -109 -36 -35 -44
-40 -64 -31 -32 14 -47 -4 -47 -58 0 -29 6 -50 17 -61 16 -17 19 -16 53 19 19
20 35 41 35 47 0 5 9 10 20 10 11 0 23 7 26 15 4 8 15 15 25 15 11 0 21 6 23
13 21 74 31 148 24 161 -9 16 -30 21 -41 9z" />
		<path d="M7758 6679 c-10 -5 -18 -18 -18 -28 0 -10 -6 -24 -14 -30 -15 -12
-30 -60 -22 -68 12 -12 57 34 72 75 10 26 23 50 28 54 17 12 -27 9 -46 -3z" />
		<path d="M5052 6654 c-12 -8 -22 -23 -22 -32 0 -9 -9 -30 -21 -47 -37 -55 -87
-160 -104 -221 -10 -32 -26 -73 -36 -90 -16 -26 -21 -60 -26 -173 -4 -84 -11
-148 -18 -158 -18 -25 -45 -9 -45 27 0 19 -6 33 -16 37 -21 8 -34 -14 -34 -59
0 -29 6 -41 25 -54 20 -13 25 -24 24 -58 -1 -22 2 -60 6 -84 6 -34 4 -46 -10
-62 -24 -27 -65 -26 -72 1 -7 27 -43 19 -94 -22 -38 -30 -94 -89 -100 -107 -2
-5 -22 -18 -44 -28 -46 -22 -60 -58 -26 -67 15 -3 21 -13 21 -31 0 -38 17 -32
29 9 11 41 68 130 103 161 25 22 91 64 102 64 11 0 6 -58 -5 -62 -11 -4 -39
-71 -39 -95 0 -24 16 -13 38 26 38 67 98 119 145 126 76 11 120 10 124 -1 2
-6 -18 -36 -44 -65 -27 -30 -61 -72 -76 -94 -14 -23 -45 -58 -67 -80 -22 -21
-40 -45 -40 -53 0 -7 3 -12 8 -10 49 26 95 42 130 46 48 5 62 23 44 53 -7 10
-12 24 -12 30 0 22 70 117 115 157 28 25 43 45 40 54 -10 26 18 39 54 27 44
-15 81 1 81 35 0 18 -12 33 -45 56 -39 27 -45 36 -45 65 0 73 -69 27 -92 -60
-15 -56 -32 -83 -68 -108 -32 -22 -62 -21 -93 3 -52 41 -40 102 39 195 126
148 221 207 303 186 39 -10 126 -9 137 2 8 7 -4 77 -13 77 -4 0 -17 -10 -30
-22 -20 -19 -25 -20 -33 -8 -11 17 -11 103 -1 140 4 15 1 36 -6 51 -10 20 -11
34 -3 53 14 37 30 23 30 -25 0 -46 14 -50 35 -9 19 36 19 70 1 95 -14 19 -15
19 -33 2 -11 -9 -27 -17 -36 -17 -17 0 -18 -2 -22 -55 -5 -61 -35 -208 -45
-220 -7 -8 -23 -10 -51 -5 -53 10 -104 -14 -154 -72 -34 -40 -37 -42 -50 -25
-19 26 -8 118 21 185 13 29 27 77 30 105 4 28 20 74 37 101 44 76 77 147 86
189 10 42 0 47 -37 21z" />
		<path d="M1772 6653 c-22 -4 -23 -8 -16 -46 10 -60 6 -112 -11 -154 -9 -20
-13 -43 -11 -50 3 -7 -1 -16 -8 -20 -19 -12 -37 -49 -31 -66 3 -7 -1 -20 -10
-27 -8 -7 -15 -23 -15 -35 0 -12 -7 -28 -15 -35 -18 -15 -20 -49 -2 -56 21 -8
86 24 87 43 1 10 2 39 3 64 2 48 19 79 43 79 8 0 19 11 24 25 5 14 21 30 35
35 25 10 32 24 16 34 -15 10 -11 76 5 76 23 0 16 48 -11 84 -14 18 -25 38 -25
44 0 12 -15 13 -58 5z" />
		<path d="M4890 6633 c0 -5 5 -15 10 -23 7 -11 14 -12 27 -4 30 18 27 34 -6 34
-17 0 -31 -3 -31 -7z" />
		<path d="M3126 6611 c-14 -16 -16 -29 -11 -63 10 -57 34 -80 82 -76 32 3 39
-1 51 -24 7 -16 19 -28 26 -28 7 0 25 -9 40 -21 l26 -20 0 34 c0 45 -32 84
-80 97 -30 8 -44 20 -64 53 -36 63 -49 71 -70 48z" />
		<path d="M5983 6606 c-10 -14 -33 -50 -52 -80 -34 -56 -44 -65 -56 -46 -11 18
-36 11 -66 -19 -21 -22 -29 -39 -29 -65 0 -33 3 -37 30 -43 29 -5 30 -8 24
-37 -3 -17 -8 -34 -11 -38 -8 -15 -31 -8 -45 13 l-14 22 -44 -23 c-55 -28 -62
-38 -44 -64 21 -30 17 -45 -13 -52 -32 -8 -70 -41 -59 -51 4 -4 27 0 52 10 28
10 53 13 67 8 12 -4 43 -6 70 -3 46 4 47 5 47 37 0 19 4 37 10 40 5 3 34 57
65 120 32 66 66 122 82 135 20 16 28 31 29 58 1 20 5 52 9 70 7 28 5 32 -13
32 -11 0 -29 -11 -39 -24z" />
		<path d="M7105 6607 c-17 -12 -42 -30 -55 -40 l-25 -18 24 -20 c13 -10 31 -19
41 -19 9 0 29 -9 43 -20 42 -33 78 -4 55 45 -6 14 -15 25 -20 25 -4 0 -8 8 -8
18 0 10 -6 25 -12 34 -12 15 -16 15 -43 -5z" />
		<path d="M7363 6573 c-12 -18 -18 -47 -19 -89 0 -44 -6 -70 -20 -89 -70 -99
-92 -151 -95 -225 -3 -57 21 -204 31 -193 5 4 13 44 18 88 14 112 29 163 61
215 33 52 55 115 46 130 -10 16 26 60 49 60 11 0 28 4 35 9 12 8 9 13 -16 27
-23 14 -33 28 -37 56 -7 45 -28 50 -53 11z" />
		<path d="M8190 6544 c0 -22 -5 -45 -10 -50 -8 -8 -6 -15 5 -24 13 -11 18 -11
30 1 11 11 12 24 5 53 -13 58 -30 69 -30 20z" />
		<path d="M4470 6553 c-90 -4 -120 -10 -120 -24 0 -6 4 -7 10 -4 5 3 36 1 67
-5 49 -9 73 -7 148 9 50 11 76 20 59 20 -17 1 -44 3 -60 4 -16 2 -63 2 -104 0z" />
		<path d="M5200 6552 c0 -5 7 -17 15 -28 14 -18 14 -18 15 9 0 17 -5 27 -15 27
-8 0 -15 -4 -15 -8z" />
		<path d="M4220 6525 c0 -10 10 -15 30 -15 32 0 40 14 14 24 -27 10 -44 7 -44
-9z" />
		<path d="M2727 6513 c-40 -5 -57 -24 -38 -47 10 -11 17 -11 49 0 20 7 49 13
65 14 15 0 27 5 27 10 0 6 -9 10 -19 10 -11 0 -23 5 -26 10 -3 6 -9 9 -13 8
-4 -1 -24 -3 -45 -5z" />
		<path d="M3716 6494 c-3 -9 4 -25 19 -40 45 -45 82 -23 43 26 -25 32 -53 38
-62 14z" />
		<path d="M2134 6486 c-17 -13 -16 -14 4 -25 11 -6 30 -11 42 -11 12 0 31 -5
42 -11 11 -6 46 -11 76 -10 31 0 61 -4 66 -8 6 -5 27 -12 48 -16 31 -6 37 -4
43 14 7 23 12 24 99 25 59 1 73 9 57 35 -13 19 -451 26 -477 7z" />
		<path d="M6144 6469 c-3 -6 -2 -14 2 -19 12 -11 57 7 49 20 -8 13 -42 13 -51
-1z" />
		<path d="M835 6461 c-6 -11 9 -23 19 -14 9 9 7 23 -3 23 -6 0 -12 -4 -16 -9z" />
		<path d="M1415 6462 c-13 -13 -4 -42 13 -42 17 0 52 29 52 43 0 7 -58 6 -65
-1z" />
		<path d="M3620 6456 c0 -8 5 -18 10 -21 6 -3 10 3 10 14 0 12 -4 21 -10 21 -5
0 -10 -6 -10 -14z" />
		<path d="M4357 6463 c-14 -13 -6 -33 12 -33 19 0 35 23 24 34 -8 8 -28 8 -36
-1z" />
		<path d="M4576 6435 c-9 -21 -16 -41 -16 -45 0 -16 -35 -36 -94 -52 -33 -9
-52 -17 -42 -17 11 -1 28 -9 38 -18 16 -15 21 -15 28 -3 9 15 25 7 25 -13 0
-7 8 -13 18 -15 12 -2 17 3 17 17 0 11 6 24 14 28 7 4 19 25 26 46 6 21 20 43
31 50 19 12 27 47 10 47 -5 0 -16 3 -25 6 -10 4 -20 -5 -30 -31z" />
		<path d="M6306 6432 c64 -59 74 -81 70 -154 -2 -35 1 -100 6 -145 10 -76 9
-88 -12 -145 -13 -35 -27 -67 -31 -73 -4 -5 -12 -29 -18 -51 -6 -23 -21 -57
-34 -76 -50 -77 -60 -99 -47 -111 12 -13 38 12 72 69 10 16 21 36 26 44 5 8
23 42 39 75 16 33 39 64 50 70 16 7 23 21 27 55 9 72 10 113 2 138 -5 16 -1
34 14 58 14 25 18 40 11 48 -6 7 -8 21 -5 32 9 33 -13 74 -38 74 -35 0 -48 13
-45 44 2 24 -5 32 -52 57 -73 39 -84 36 -35 -9z" />
		<path d="M8027 6443 c-13 -13 -32 -16 -91 -15 -76 3 -103 -8 -66 -28 13 -7 26
-7 38 -1 11 6 24 6 35 -1 12 -6 22 -6 31 1 16 13 64 -2 70 -21 15 -49 17 -51
29 -39 9 9 9 16 -1 31 -18 29 -15 49 11 71 l22 18 -30 1 c-17 0 -38 -8 -48
-17z" />
		<path d="M2078 6389 c-23 -24 -22 -31 2 -71 17 -28 20 -30 26 -13 11 28 10 98
-1 101 -5 1 -18 -6 -27 -17z" />
		<path d="M7760 6400 c0 -5 7 -10 15 -10 8 0 15 5 15 10 0 6 -7 10 -15 10 -8 0
-15 -4 -15 -10z" />
		<path d="M6102 6388 c-19 -19 -15 -25 33 -42 33 -11 53 -12 71 -6 37 14 25 32
-32 47 -60 16 -57 16 -72 1z" />
		<path d="M3886 6376 c3 -9 1 -23 -6 -31 -14 -17 -3 -42 12 -27 7 7 21 5 44 -4
18 -8 46 -14 60 -14 15 0 35 -7 45 -16 9 -8 27 -15 40 -16 45 0 118 -20 130
-34 6 -8 18 -14 27 -14 9 0 26 -10 39 -22 13 -12 26 -18 30 -14 7 7 -20 60
-47 88 -20 22 -112 54 -174 62 -27 3 -61 13 -74 22 -14 9 -39 18 -56 20 -17 2
-41 6 -54 10 -18 5 -21 3 -16 -10z" />
		<path d="M588 6365 c-3 -3 -3 -17 0 -30 3 -20 7 -23 18 -14 18 15 18 49 1 49
-8 0 -16 -2 -19 -5z" />
		<path d="M2160 6345 c0 -18 24 -30 39 -21 16 10 1 36 -20 36 -10 0 -19 -7 -19
-15z" />
		<path d="M877 6334 c-4 -4 -7 -20 -7 -36 0 -21 5 -28 20 -28 24 0 63 36 57 53
-4 13 -59 22 -70 11z" />
		<path d="M5544 6273 c-4 -15 -31 -55 -60 -88 -40 -45 -50 -62 -42 -72 13 -16
62 -17 89 -2 17 9 19 17 14 50 -5 30 -2 49 14 78 17 34 18 41 6 51 -11 10 -16
6 -21 -17z" />
		<path d="M6030 6284 c0 -18 77 -57 98 -49 13 5 12 9 -7 27 -29 26 -91 42 -91
22z" />
		<path d="M560 6275 c0 -8 5 -15 10 -15 6 0 10 7 10 15 0 8 -4 15 -10 15 -5 0
-10 -7 -10 -15z" />
		<path d="M2326 6282 c-3 -6 1 -15 8 -21 8 -7 17 -8 20 -3 3 6 -1 15 -8 21 -8
7 -17 8 -20 3z" />
		<path d="M720 6243 c0 -31 15 -61 26 -51 9 10 -5 78 -16 78 -6 0 -10 -12 -10
-27z" />
		<path d="M2598 6214 c-45 -43 -63 -84 -36 -84 18 0 108 61 118 81 34 63 -18
65 -82 3z" />
		<path d="M4558 6229 c-7 -42 -3 -128 6 -150 4 -8 2 -28 -3 -42 -6 -15 -8 -34
-5 -42 4 -8 3 -23 -2 -32 -4 -10 -8 -27 -10 -38 -4 -32 -33 -106 -55 -136 -10
-15 -19 -32 -19 -39 0 -17 -56 -70 -74 -70 -21 0 -20 -19 0 -41 11 -12 21 -15
33 -9 9 5 24 11 34 14 12 4 17 16 17 46 0 34 4 42 25 50 15 6 32 24 40 44 8
19 20 36 26 38 6 2 13 31 15 63 5 80 11 155 19 218 5 42 2 62 -18 106 l-24 55
-5 -35z" />
		<path d="M5320 6250 c-11 -7 -12 -12 -4 -20 8 -8 14 -7 23 4 14 17 1 28 -19
16z" />
		<path d="M2320 6220 c-12 -8 -11 -10 8 -10 12 0 22 5 22 10 0 13 -11 13 -30 0z" />
		<path d="M8320 6222 c0 -5 7 -15 15 -22 9 -8 12 -22 8 -43 l-5 -32 23 23 c23
21 23 23 7 50 -16 27 -48 43 -48 24z" />
		<path d="M8720 6216 c0 -8 4 -17 9 -20 11 -7 33 18 24 27 -12 12 -33 7 -33 -7z" />
		<path d="M924 6175 c-6 -15 34 -85 48 -85 18 0 17 23 -2 60 -21 42 -37 50 -46
25z" />
		<path d="M5875 6160 c-8 -13 11 -30 36 -30 8 0 30 -11 48 -25 30 -22 36 -23
54 -10 18 13 23 13 39 -2 10 -9 18 -30 18 -47 1 -32 90 -208 109 -214 31 -10
29 140 -2 163 -10 7 -13 15 -7 21 18 18 -3 60 -47 92 -36 27 -51 32 -75 27
-21 -5 -35 -2 -49 11 -23 21 -113 32 -124 14z" />
		<path d="M6190 6150 c27 -20 36 -19 27 5 -4 8 -17 15 -29 15 l-23 0 25 -20z" />
		<path d="M627 6055 c-7 -46 -1 -75 13 -75 15 0 22 39 15 80 -9 53 -21 51 -28
-5z" />
		<path d="M1824 6079 c-3 -6 -2 -15 2 -19 12 -12 38 5 30 19 -9 14 -23 14 -32
0z" />
		<path d="M750 6065 c0 -8 5 -15 10 -15 6 0 10 7 10 15 0 8 -4 15 -10 15 -5 0
-10 -7 -10 -15z" />
		<path d="M7376 6003 c-9 -59 -7 -163 4 -163 11 0 16 22 25 102 10 88 -15 140
-29 61z" />
		<path d="M1155 6009 c-16 -5 -48 -10 -70 -10 -28 -1 -46 -8 -62 -25 -14 -15
-33 -24 -53 -24 -18 0 -29 -4 -25 -10 8 -13 71 -13 94 0 13 6 38 2 86 -15 38
-13 73 -21 77 -19 4 3 11 -2 14 -10 12 -31 19 -15 21 47 1 78 -11 88 -82 66z" />
		<path d="M5796 6004 c-10 -26 -7 -44 9 -44 17 0 39 36 30 50 -9 15 -32 12 -39
-6z" />
		<path d="M5216 5956 c-8 -59 11 -116 39 -116 22 0 25 12 14 59 -7 30 -6 47 1
56 15 18 -4 55 -29 55 -15 0 -20 -11 -25 -54z" />
		<path d="M470 5975 c0 -8 5 -15 10 -15 6 0 10 7 10 15 0 8 -4 15 -10 15 -5 0
-10 -7 -10 -15z" />
		<path d="M5930 5953 c0 -18 28 -53 43 -53 16 0 5 28 -18 50 -24 23 -25 23 -25
3z" />
		<path d="M640 5935 c-10 -12 -10 -20 -1 -38 7 -13 11 -30 9 -38 -2 -7 4 -14
12 -14 17 0 36 64 27 89 -8 20 -31 21 -47 1z" />
		<path d="M855 5940 c3 -5 13 -10 21 -10 8 0 14 5 14 10 0 6 -9 10 -21 10 -11
0 -17 -4 -14 -10z" />
		<path d="M7235 5919 c-4 -6 -7 -41 -6 -78 1 -46 -3 -73 -13 -86 -9 -11 -16
-30 -16 -41 0 -12 -7 -38 -15 -57 -8 -20 -15 -46 -15 -57 0 -18 3 -19 20 -10
11 6 20 16 20 23 0 7 6 23 13 37 8 14 17 40 20 58 4 18 16 45 27 60 19 26 20
32 8 92 -13 62 -28 83 -43 59z" />
		<path d="M550 5826 c0 -11 9 -16 26 -16 31 0 28 23 -4 28 -15 2 -22 -2 -22
-12z" />
		<path d="M705 5796 c-7 -33 -9 -35 -37 -29 -28 5 -29 4 -22 -23 3 -16 17 -38
30 -49 16 -14 24 -31 24 -52 0 -18 6 -33 15 -37 9 -3 15 -18 15 -36 0 -23 -4
-30 -20 -30 -11 0 -20 -6 -20 -13 0 -23 31 -57 52 -57 17 0 19 -4 14 -27 -4
-16 -14 -33 -22 -39 -22 -17 -17 -34 11 -35 14 -1 31 -2 38 -3 11 -1 13 15 16
163 0 19 -5 43 -11 54 -8 15 -7 35 2 74 14 57 23 63 52 36 15 -13 23 -14 44
-5 13 7 34 12 44 12 13 0 20 7 20 19 0 15 -9 20 -42 23 -24 3 -58 0 -76 -4
-43 -12 -75 8 -88 53 -13 45 -31 48 -39 5z" />
		<path d="M2814 5785 c-12 -18 -22 -24 -35 -20 -13 4 -19 1 -19 -9 0 -9 -4 -16
-9 -16 -4 0 -7 -41 -5 -90 2 -80 5 -95 28 -125 22 -29 25 -40 20 -76 -7 -39
-6 -41 15 -34 19 6 24 1 38 -35 14 -34 20 -41 37 -36 12 3 35 9 52 13 36 9
114 76 114 97 0 24 50 56 87 56 21 0 36 6 39 15 8 20 -23 85 -41 85 -7 0 -16
8 -20 18 -8 25 -57 76 -94 98 -17 10 -34 27 -37 37 -4 13 -9 15 -18 8 -13 -11
-78 7 -98 27 -19 19 -36 14 -54 -13z m104 -107 c26 -24 68 -54 95 -67 59 -28
63 -55 12 -90 -19 -12 -44 -43 -55 -67 -21 -43 -56 -61 -64 -31 -8 32 -39 135
-47 157 -5 14 -25 40 -44 59 -92 89 9 127 103 39z" />
		<path d="M4024 5796 c-17 -6 -45 -23 -63 -38 -18 -16 -38 -28 -45 -28 -7 0
-27 -20 -44 -44 -17 -24 -53 -64 -78 -90 l-47 -46 29 0 c16 0 39 -3 51 -6 18
-5 23 -1 29 21 6 24 50 62 152 132 74 51 125 67 135 41 2 -7 8 -10 12 -5 5 4
1 23 -8 42 -14 30 -20 34 -54 33 -21 -1 -52 -6 -69 -12z" />
		<path d="M6034 5789 c-16 -17 -16 -22 -4 -29 32 -20 52 -5 42 33 -6 22 -15 22
-38 -4z" />
		<path d="M1296 5783 c-42 -22 -170 -46 -250 -46 -57 0 -66 -2 -53 -12 20 -14
22 -47 6 -78 -10 -19 -41 -50 -87 -88 -7 -6 -12 -21 -10 -32 2 -18 10 -22 42
-22 36 0 40 -3 48 -32 8 -32 28 -55 28 -33 0 25 53 80 77 80 27 0 43 28 22 41
-8 5 -31 9 -51 9 -45 0 -49 16 -15 61 31 43 67 59 132 59 73 0 142 30 151 66
9 35 -6 45 -40 27z" />
		<path d="M1435 5738 c-4 -18 -14 -45 -23 -59 -9 -16 -12 -35 -8 -45 7 -17 9
-17 27 6 22 29 43 96 35 116 -9 24 -24 15 -31 -18z" />
		<path d="M7340 5725 c0 -26 7 -43 26 -60 28 -26 51 -34 37 -12 -4 6 -15 32
-23 56 -20 57 -40 65 -40 16z" />
		<path d="M5424 5709 c-27 -11 -73 -19 -103 -19 -45 0 -63 -6 -107 -35 -29 -19
-56 -35 -61 -35 -4 -1 -33 -21 -63 -45 -30 -25 -76 -61 -102 -81 -79 -59 -55
-87 34 -40 82 44 125 74 176 125 27 28 57 51 66 51 23 0 73 -27 78 -42 3 -8
16 -2 36 19 33 32 79 46 157 47 34 1 40 4 43 25 3 22 1 23 -26 18 -20 -4 -32
-2 -35 7 -9 22 -42 24 -93 5z" />
		<path d="M154 5709 c-3 -6 -1 -16 5 -22 8 -8 11 -5 11 11 0 24 -5 28 -16 11z" />
		<path d="M4151 5678 c-13 -27 -39 -56 -71 -78 -28 -19 -56 -40 -63 -45 -7 -6
-31 -16 -54 -23 -24 -7 -43 -19 -43 -27 0 -19 84 -31 113 -16 12 6 33 15 47
20 17 6 35 28 54 64 15 31 34 58 42 61 16 6 20 71 5 80 -5 4 -19 -13 -30 -36z" />
		<path d="M5613 5585 c-6 -9 -19 -22 -30 -28 -11 -7 -56 -33 -99 -59 -43 -27
-91 -48 -106 -48 -34 0 -65 -38 -45 -56 6 -7 29 -16 49 -19 33 -6 37 -5 40 17
2 16 11 24 28 26 14 2 29 8 35 13 5 5 17 9 27 9 10 0 18 6 18 13 0 6 16 23 35
37 19 14 37 33 40 42 4 11 15 17 28 15 17 -2 22 3 22 23 0 29 -29 39 -42 15z" />
		<path d="M3371 5540 l-23 -20 26 0 c19 0 26 5 26 20 0 24 1 24 -29 0z" />
		<path d="M1560 5520 c0 -5 7 -10 15 -10 8 0 15 5 15 10 0 6 -7 10 -15 10 -8 0
-15 -4 -15 -10z" />
		<path d="M587 5484 c-3 -4 -2 -16 4 -26 13 -24 35 -9 26 16 -7 17 -19 21 -30
10z" />
		<path d="M1440 5460 c-11 -11 -33 -20 -50 -20 -34 0 -38 -7 -12 -26 25 -20 52
-17 52 5 0 23 19 31 71 31 28 0 39 4 39 15 0 24 -75 20 -100 -5z" />
		<path d="M8485 5442 c-14 -10 -13 -72 1 -72 14 0 28 60 17 71 -5 5 -13 5 -18
1z" />
		<path d="M1155 5420 c-10 -11 -15 -23 -11 -27 4 -4 11 -1 16 7 7 11 13 12 35
2 32 -15 45 -15 45 -2 0 6 -9 10 -20 10 -11 0 -23 7 -26 15 -8 20 -17 19 -39
-5z" />
		<path d="M1015 5401 c-3 -11 -3 -35 0 -54 5 -25 1 -45 -14 -73 -12 -21 -21
-44 -21 -50 0 -6 -12 -16 -26 -22 -30 -14 -59 -2 -69 27 -3 11 -12 22 -20 25
-8 3 -15 12 -15 20 0 17 -49 58 -60 51 -14 -9 15 -74 37 -84 13 -6 23 -19 23
-30 0 -24 23 -43 43 -35 20 7 30 -11 17 -33 -27 -47 -60 -160 -53 -179 2 -7
-3 -26 -11 -43 -25 -46 1 -51 41 -8 26 29 33 45 33 76 0 22 5 43 10 46 6 3 10
23 10 43 0 30 7 44 43 77 40 37 44 46 50 100 5 46 11 63 29 76 l23 18 -25 28
c-14 15 -28 32 -31 37 -4 4 -10 -1 -14 -13z" />
		<path d="M164 5385 c-7 -29 -1 -41 15 -30 14 8 14 55 1 55 -5 0 -12 -11 -16
-25z" />
		<path d="M5206 5356 c8 -22 -34 -31 -55 -12 -24 22 -59 20 -99 -4 -27 -17 -31
-24 -26 -45 5 -19 2 -25 -10 -25 -18 0 -22 -15 -6 -25 6 -3 13 0 16 8 3 8 23
22 44 32 32 15 44 16 68 6 57 -24 128 29 90 67 -16 16 -29 15 -22 -2z" />
		<path d="M5272 5329 c2 -7 10 -15 17 -17 8 -3 12 1 9 9 -2 7 -10 15 -17 17 -8
3 -12 -1 -9 -9z" />
		<path d="M523 5288 c-11 -13 -30 -41 -42 -63 -11 -22 -35 -57 -53 -78 -27 -32
-30 -40 -18 -47 21 -14 56 -12 67 3 6 6 13 29 17 50 4 23 16 43 31 53 14 9 25
23 25 32 0 8 8 20 17 27 15 11 15 15 4 29 -18 21 -24 20 -48 -6z" />
		<path d="M4665 5291 c-6 -11 9 -23 19 -14 9 9 7 23 -3 23 -6 0 -12 -4 -16 -9z" />
		<path d="M4885 5280 c-3 -5 3 -10 15 -10 12 0 18 5 15 10 -3 6 -10 10 -15 10
-5 0 -12 -4 -15 -10z" />
		<path d="M180 5260 c0 -19 3 -21 12 -12 9 9 9 15 0 24 -9 9 -12 7 -12 -12z" />
		<path d="M1061 5090 c-17 -34 -22 -64 -25 -150 -2 -60 -10 -124 -17 -144 -24
-66 8 -57 63 18 32 45 37 103 12 151 -13 26 -14 38 -3 88 16 76 1 95 -30 37z" />
		<path d="M1290 5116 c-14 -18 -6 -50 13 -44 15 6 22 37 10 49 -6 6 -15 4 -23
-5z" />
		<path d="M6384 5064 c3 -9 6 -24 6 -35 0 -10 6 -19 14 -19 10 0 11 7 2 35 -6
19 -15 35 -20 35 -4 0 -5 -7 -2 -16z" />
		<path d="M330 5006 c0 -16 28 -42 36 -33 3 3 3 15 -1 26 -7 23 -35 29 -35 7z" />
		<path d="M656 5005 c-3 -8 -23 -22 -46 -31 -34 -14 -40 -21 -40 -45 0 -27 2
-29 28 -23 48 10 52 13 52 34 0 11 7 23 15 26 16 7 20 39 6 48 -5 3 -11 -1
-15 -9z" />
		<path d="M6413 4974 c-7 -15 -10 -30 -8 -34 3 -5 9 -34 14 -67 12 -78 60 -256
72 -268 22 -21 -9 213 -35 262 -20 40 -20 62 0 84 9 10 14 25 11 34 -10 24
-41 17 -54 -11z" />
		<path d="M780 4955 c0 -9 5 -15 11 -13 6 2 11 8 11 13 0 5 -5 11 -11 13 -6 2
-11 -4 -11 -13z" />
		<path d="M4134 4944 c-7 -29 -1 -39 21 -31 19 8 20 43 0 51 -10 3 -17 -3 -21
-20z" />
		<path d="M5947 4943 c-15 -3 -32 -13 -37 -23 -14 -25 5 -36 26 -15 15 14 19
14 40 0 25 -16 74 -21 74 -7 0 27 -56 52 -103 45z" />
		<path d="M1238 4915 c-10 -13 -18 -28 -18 -33 0 -5 -12 -14 -26 -20 -20 -10
-25 -18 -22 -40 l3 -27 90 0 c69 -1 96 -5 115 -18 33 -23 35 -22 58 17 20 34
21 35 76 29 30 -3 62 -3 71 1 15 5 14 8 -2 31 -21 29 -82 35 -103 10 -7 -8
-24 -15 -39 -15 -15 0 -32 -5 -39 -12 -9 -9 -21 -9 -50 0 -22 7 -49 12 -61 12
-20 0 -22 4 -19 41 4 49 -10 58 -34 24z" />
		<path d="M8450 4932 c0 -4 6 -14 13 -21 10 -11 9 -14 -2 -18 -18 -7 -51 -41
-51 -53 0 -5 8 -10 18 -10 25 0 76 55 69 74 -7 17 -47 41 -47 28z" />
		<path d="M470 4871 c-31 -26 -34 -32 -22 -50 16 -27 16 -27 -15 -26 -22 0 -29
-5 -31 -22 -3 -19 1 -23 25 -23 15 0 35 4 42 9 9 6 22 6 32 0 20 -10 27 -2 45
48 9 25 8 38 -4 62 -18 38 -29 39 -72 2z" />
		<path d="M4970 4875 c0 -8 5 -15 10 -15 6 0 10 7 10 15 0 8 -4 15 -10 15 -5 0
-10 -7 -10 -15z" />
		<path d="M1650 4855 l-23 -25 39 -16 c36 -15 41 -15 73 2 19 11 48 19 65 19
40 0 41 26 1 36 -20 6 -34 4 -45 -6 -13 -11 -19 -11 -40 0 -35 20 -43 18 -70
-10z" />
		<path d="M810 4820 c0 -8 -6 -21 -13 -29 -17 -19 -11 -101 7 -101 50 0 72 98
29 127 -18 12 -23 12 -23 3z" />
		<path d="M5720 4780 c13 -23 20 -26 20 -6 0 8 -7 16 -15 20 -13 4 -14 2 -5
-14z" />
		<path d="M707 4736 c-8 -19 18 -40 39 -32 15 6 15 8 -1 26 -21 24 -31 25 -38
6z" />
		<path d="M4970 4711 c0 -17 5 -31 10 -31 6 0 10 11 10 24 0 14 -4 28 -10 31
-6 4 -10 -7 -10 -24z" />
		<path d="M1725 4680 c-3 -5 -15 -10 -26 -10 -10 0 -19 -5 -19 -11 0 -8 13 -9
42 -5 46 8 58 13 58 27 0 12 -47 12 -55 -1z" />
		<path d="M1220 4655 c-38 -19 -47 -21 -60 -10 -11 10 -27 11 -60 5 -25 -5 -57
-6 -72 -3 -22 4 -33 -1 -58 -29 -36 -40 -77 -42 -82 -4 -2 15 -10 21 -27 21
-14 0 -26 6 -29 13 -7 23 -22 12 -22 -16 0 -22 -10 -36 -45 -62 -25 -18 -47
-42 -51 -52 -3 -10 -23 -29 -43 -43 -37 -22 -71 -79 -57 -92 4 -4 16 -2 26 5
11 7 42 12 69 12 40 0 53 4 65 22 19 27 21 59 4 76 -8 8 -5 14 15 21 20 8 26
18 29 48 2 30 7 38 23 38 16 0 21 -8 23 -36 2 -20 11 -44 20 -53 16 -14 21
-12 55 19 20 19 37 41 37 49 0 23 27 19 44 -6 26 -36 21 -51 -14 -43 -38 8
-51 -16 -25 -45 24 -26 75 -27 75 -1 0 10 9 30 20 44 11 14 20 30 20 36 0 14
27 14 35 1 9 -15 42 -12 49 5 6 17 43 20 48 5 2 -7 29 -6 81 4 43 8 83 13 90
11 7 -3 21 2 31 10 19 14 19 15 2 34 -12 13 -37 22 -75 26 -31 3 -65 8 -76 10
-11 2 -40 -7 -65 -20z" />
		<path d="M5910 4657 c0 -7 4 -17 9 -22 5 -6 11 -21 13 -35 2 -17 9 -25 23 -25
17 0 20 6 17 34 -1 19 -7 41 -14 48 -14 17 -48 17 -48 0z" />
		<path d="M578 4631 c-64 -80 -69 -91 -44 -91 17 0 126 56 144 74 12 11 8 16
-19 30 -44 22 -54 20 -81 -13z" />
		<path d="M8717 4640 c-27 -5 -55 -14 -64 -21 -13 -12 -13 -14 4 -20 59 -24
231 3 220 34 -4 15 -93 18 -160 7z" />
		<path d="M433 4628 c-23 -11 -33 -58 -12 -58 14 0 79 50 79 61 0 12 -40 10
-67 -3z" />
		<path d="M1544 4615 c-4 -8 -12 -15 -19 -15 -8 0 -17 -5 -21 -12 -5 -8 -2 -9
10 -5 12 5 31 -3 56 -23 49 -39 61 -38 53 2 -11 57 -64 92 -79 53z" />
		<path d="M2104 4575 c-26 -29 -37 -48 -30 -55 6 -6 4 -16 -6 -27 -9 -10 -19
-28 -22 -40 -8 -26 -52 -63 -75 -63 -28 -1 -65 -36 -57 -55 6 -16 8 -16 32 0
25 16 54 15 54 -3 0 -11 -36 -54 -92 -109 -34 -34 -41 -44 -30 -54 18 -19 15
-47 -8 -59 -27 -14 -57 -4 -76 26 -22 33 -68 33 -90 -2 -15 -22 -15 -27 -3
-35 8 -5 19 -9 25 -9 7 0 14 -7 18 -15 3 -8 15 -15 26 -15 11 0 20 -5 20 -11
0 -7 10 -9 25 -7 14 3 25 1 25 -3 0 -9 -63 -51 -92 -62 -21 -8 -24 -37 -4 -37
7 0 19 7 27 16 8 10 22 14 38 11 14 -3 36 -1 49 4 19 7 23 14 18 34 -3 13 -2
27 4 30 5 3 20 27 32 53 39 80 97 160 121 165 80 17 155 -1 177 -43 6 -11 17
-20 25 -20 8 0 27 -11 42 -24 16 -14 40 -35 56 -48 24 -20 28 -31 32 -92 4
-62 -3 -137 -21 -233 -5 -28 -3 -33 12 -33 33 0 46 17 49 57 3 50 21 83 45 83
13 0 20 7 20 20 0 11 -4 20 -10 20 -5 0 -17 14 -26 32 -13 25 -15 48 -11 104
6 77 -4 101 -37 88 -18 -7 -21 7 -5 23 7 7 9 23 5 38 -6 25 -10 26 -46 20 -28
-5 -62 1 -125 20 -71 22 -91 25 -111 16 -65 -29 -76 -3 -29 74 20 34 35 72 35
89 0 22 8 38 30 56 23 20 30 34 32 70 4 61 -16 62 -68 5z" />
		<path d="M5990 4567 c0 -16 14 -35 40 -56 22 -18 40 -41 40 -51 0 -11 7 -20
15 -20 8 0 21 -13 30 -30 12 -23 22 -30 45 -30 23 0 30 4 30 20 0 11 -6 23
-14 26 -8 3 -35 32 -62 65 -26 32 -52 59 -59 59 -7 0 -20 9 -30 20 -24 26 -35
25 -35 -3z" />
		<path d="M6483 4574 c-3 -9 -1 -31 5 -48 7 -18 12 -40 12 -50 0 -10 6 -32 14
-49 8 -18 17 -50 20 -71 6 -45 18 -61 40 -53 26 10 20 64 -10 94 -24 24 -26
30 -15 58 10 28 8 38 -15 78 -30 55 -42 64 -51 41z" />
		<path d="M4415 4499 c-27 -5 -88 -11 -135 -14 l-86 -6 0 -55 c0 -59 10 -71 20
-24 5 25 10 30 38 32 18 1 42 1 53 -1 18 -1 256 -11 280 -11 23 0 157 19 175
25 23 7 25 18 9 46 -10 19 -19 20 -157 18 -81 -2 -169 -6 -197 -10z" />
		<path d="M1356 4461 c-19 -21 -14 -41 10 -41 8 0 23 -5 34 -12 24 -15 27 -12
32 32 3 33 1 35 -28 38 -20 2 -36 -4 -48 -17z" />
		<path d="M512 4452 c-13 -4 -23 -10 -23 -14 1 -5 1 -21 1 -38 0 -36 18 -39 47
-7 43 45 30 74 -25 59z" />
		<path d="M850 4405 c-29 -68 -27 -74 22 -72 l42 2 9 -44 c6 -31 5 -51 -3 -66
-13 -23 -6 -65 11 -65 14 0 11 -22 -7 -41 -11 -13 -25 -16 -45 -12 -22 4 -38
-2 -78 -33 -27 -22 -56 -43 -66 -49 -9 -5 -22 -36 -30 -67 -7 -31 -22 -67 -34
-79 -14 -15 -19 -29 -14 -39 4 -8 7 -34 8 -58 0 -23 6 -46 13 -51 7 -4 16 -30
20 -57 6 -33 23 -71 49 -110 24 -34 43 -76 45 -95 5 -56 31 -44 42 21 7 49 6
56 -13 68 -11 8 -21 22 -21 31 -1 9 -9 34 -20 56 -28 59 -29 256 0 302 20 33
94 93 115 93 7 0 21 8 33 18 46 40 121 -4 162 -93 11 -24 20 -50 20 -58 0 -26
28 -41 53 -30 33 16 77 15 93 -2 18 -18 41 -10 50 17 10 32 -9 41 -76 36 -57
-4 -63 -3 -73 19 -5 13 -8 26 -5 29 12 11 105 13 172 3 78 -11 89 -16 63 -30
-21 -13 -22 -39 -1 -39 24 0 84 70 84 97 0 13 7 26 15 29 8 4 15 10 15 14 0
18 -55 20 -109 4 -78 -22 -123 -17 -338 31 -26 6 -73 70 -73 99 0 11 -8 28
-17 38 -16 18 -15 20 5 41 19 18 25 20 42 9 20 -12 50 -16 50 -6 0 3 -5 14
-11 26 -8 15 -17 19 -38 15 -36 -8 -45 0 -70 58 -12 28 -33 58 -47 68 l-24 18
-20 -46z" />
		<path d="M4810 4405 c-14 -43 -8 -65 20 -65 17 0 20 6 20 39 0 21 -6 44 -14
50 -12 10 -16 5 -26 -24z" />
		<path d="M8394 4429 c-10 -17 14 -35 28 -21 7 7 17 8 28 2 9 -5 22 -5 30 0 12
8 12 10 0 14 -39 12 -80 14 -86 5z" />
		<path d="M8141 4389 c-22 -29 -22 -31 -5 -50 22 -25 41 -24 54 1 12 23 6 52
-14 69 -9 8 -18 3 -35 -20z" />
		<path d="M416 4348 c-9 -12 -16 -31 -16 -41 0 -9 -8 -20 -17 -24 -10 -3 -25
-12 -33 -19 -8 -7 -51 -15 -95 -17 -44 -3 -96 -8 -116 -12 -32 -6 -39 -3 -62
25 -15 17 -27 39 -27 48 0 10 -3 12 -9 7 -5 -6 -12 -39 -15 -75 l-7 -65 193 2
c188 2 308 10 308 21 0 3 -11 20 -25 38 -18 24 -25 45 -25 77 0 32 -5 47 -16
51 -22 8 -21 9 -38 -16z" />
		<path d="M1500 4362 c0 -12 34 -42 46 -42 14 0 74 -55 74 -67 0 -6 -7 -16 -15
-23 -14 -12 -14 -15 1 -31 22 -24 41 -24 54 0 15 30 12 48 -10 54 -13 3 -20
14 -20 30 0 21 -9 30 -47 47 -27 13 -56 26 -65 31 -10 5 -18 5 -18 1z" />
		<path d="M1100 4331 c-22 -15 -3 -28 50 -35 25 -3 61 -9 80 -12 19 -4 52 -7
72 -6 22 0 39 -6 42 -14 6 -16 106 -20 106 -4 0 15 -67 42 -89 35 -11 -3 -31
-1 -43 6 -47 26 -194 45 -218 30z" />
		<path d="M1786 4301 c-3 -5 -22 -12 -41 -15 -49 -10 -45 -28 5 -20 36 6 40 4
50 -20 11 -31 36 -34 45 -6 3 11 11 20 16 20 5 0 9 7 9 15 0 8 -9 15 -19 15
-11 0 -23 5 -26 10 -8 12 -32 13 -39 1z" />
		<path d="M4310 4295 c-7 -8 -10 -18 -7 -22 3 -4 93 -8 201 -7 108 0 199 -3
202 -8 9 -14 41 -9 48 7 3 8 12 15 21 15 8 0 15 4 15 9 0 5 -19 9 -42 10 -400
10 -427 9 -438 -4z" />
		<path d="M8812 4298 c-32 -32 10 -58 61 -39 33 13 37 36 5 28 -13 -4 -29 0
-38 8 -13 11 -19 12 -28 3z" />
		<path d="M8475 4280 c-16 -18 -17 -26 -7 -69 6 -27 8 -79 5 -117 -6 -78 10
-201 29 -220 11 -11 14 0 16 59 2 40 3 97 2 127 -2 118 0 146 10 165 13 25 -2
75 -23 75 -8 0 -22 -9 -32 -20z" />
		<path d="M8935 4290 c-4 -6 8 -10 29 -10 20 0 36 5 36 10 0 6 -13 10 -29 10
-17 0 -33 -4 -36 -10z" />
		<path d="M570 4265 c0 -21 32 -35 79 -35 29 0 41 4 41 14 0 21 -19 30 -72 33
-37 2 -48 -1 -48 -12z" />
		<path d="M8615 4270 c-8 -13 20 -24 41 -16 20 8 9 26 -16 26 -10 0 -22 -5 -25
-10z" />
		<path d="M5386 4254 c-8 -20 12 -56 27 -51 17 5 21 35 7 52 -16 19 -26 19 -34
-1z" />
		<path d="M6582 4258 c-7 -7 -12 -29 -12 -49 0 -20 -7 -42 -15 -49 -16 -13 -21
-40 -7 -40 15 0 32 24 32 46 0 25 20 36 41 24 28 -18 40 38 13 64 -19 19 -36
20 -52 4z" />
		<path d="M6680 4260 c0 -13 20 -13 40 0 12 8 9 10 -12 10 -16 0 -28 -4 -28
-10z" />
		<path d="M8150 4240 c0 -19 8 -37 22 -48 11 -9 30 -25 40 -35 26 -24 37 -13
13 13 -15 17 -16 24 -6 46 15 34 0 54 -40 54 -26 0 -29 -4 -29 -30z" />
		<path d="M1460 4226 c0 -7 12 -16 28 -19 32 -6 37 -3 29 18 -8 19 -57 20 -57
1z" />
		<path d="M8304 4205 c-3 -14 -14 -31 -23 -38 -14 -10 -16 -22 -12 -66 6 -56
23 -75 39 -44 14 26 24 173 12 173 -5 0 -12 -11 -16 -25z" />
		<path d="M1090 4215 c0 -11 49 -24 69 -18 37 9 23 23 -24 23 -25 0 -45 -2 -45
-5z" />
		<path d="M1252 4212 c-42 -4 -37 -24 9 -33 37 -8 49 -4 49 16 0 16 -16 21 -58
17z" />
		<path d="M1347 4214 c-3 -3 -3 -12 0 -20 6 -17 37 -18 65 -3 17 9 18 13 7 20
-16 10 -63 12 -72 3z" />
		<path d="M2961 4181 c-6 -4 -11 -14 -9 -22 2 -9 -7 -15 -23 -17 -20 -2 -28 2
-32 17 -6 26 -34 27 -61 3 -12 -10 -47 -25 -80 -32 -54 -13 -60 -17 -77 -54
-20 -44 -24 -82 -10 -90 4 -3 11 -45 15 -93 4 -48 10 -108 12 -133 3 -25 6
-65 5 -89 0 -26 6 -49 15 -58 8 -9 14 -28 12 -43 -1 -15 2 -34 9 -41 6 -8 14
-38 18 -66 4 -29 11 -55 16 -59 5 -3 9 -18 9 -34 0 -23 7 -33 30 -45 26 -13
30 -21 30 -55 0 -21 5 -42 10 -45 6 -3 10 -17 10 -30 0 -13 4 -27 10 -30 13
-8 0 -68 -18 -81 -17 -13 -8 -34 14 -34 19 0 14 -20 -9 -34 -12 -8 -23 -7 -37
2 -17 10 -29 10 -67 -3 -51 -18 -76 -14 -67 10 3 8 1 15 -5 15 -6 0 -11 -7
-11 -15 0 -18 -23 -19 -51 -2 -18 11 -24 8 -48 -20 -29 -35 -55 -41 -84 -19
-9 7 -27 11 -40 9 -43 -8 -59 17 -60 90 0 37 -4 67 -8 67 -17 0 -23 -28 -20
-87 2 -51 -1 -67 -18 -89 -16 -20 -18 -31 -10 -45 9 -17 6 -19 -38 -19 -26 0
-57 7 -67 15 -11 8 -31 15 -45 15 -14 0 -34 6 -43 14 -17 12 -93 14 -105 2 -4
-3 -41 -6 -84 -6 -58 0 -82 -4 -94 -16 -20 -21 -13 -28 28 -29 52 0 40 -27
-18 -40 l-50 -11 50 -7 c59 -7 260 -1 400 13 142 14 289 23 368 21 67 -1 91
14 45 27 -19 6 -16 8 17 12 54 7 75 1 75 -21 0 -12 7 -19 20 -19 13 0 20 7 20
20 0 16 7 20 30 20 20 0 30 -5 30 -15 0 -10 11 -15 38 -16 116 -3 375 2 567
11 121 6 290 13 375 16 85 2 182 6 215 9 33 2 188 6 345 10 157 3 296 8 310
11 28 6 173 10 775 18 226 4 487 8 580 11 259 6 690 15 989 20 241 3 289 7
275 19 -2 2 -139 6 -303 10 -301 6 -404 15 -200 17 767 6 1519 20 1527 28 15
15 -4 39 -54 65 -45 25 -53 26 -85 16 -27 -9 -55 -10 -108 -2 -39 6 -104 10
-145 8 -41 -2 -87 2 -102 8 -24 8 -31 7 -41 -7 -11 -14 -24 -17 -73 -12 -142
12 -244 9 -262 -7 -21 -19 -148 -18 -197 1 -16 6 -44 9 -62 5 -21 -4 -40 -2
-48 5 -8 7 -17 8 -20 3 -6 -11 -131 -24 -252 -27 -44 -1 -86 -5 -92 -9 -6 -3
-13 -2 -17 4 -8 14 -78 13 -92 -1 -9 -9 -19 -9 -40 -1 -15 6 -50 8 -78 6 -27
-3 -84 -7 -125 -8 -41 -1 -88 -8 -104 -15 -23 -9 -39 -9 -82 4 -29 8 -54 21
-57 28 -3 9 -13 7 -40 -7 -29 -15 -39 -16 -51 -7 -12 10 -20 9 -39 -4 -23 -14
-29 -15 -61 -1 -34 14 -36 14 -47 -6 -9 -17 -18 -20 -59 -16 -27 3 -61 13 -77
24 -31 20 -85 26 -123 12 -16 -6 -31 -5 -45 2 -18 10 -28 7 -60 -15 -36 -24
-45 -25 -112 -21 -39 3 -84 8 -98 12 -15 4 -39 0 -60 -10 -25 -12 -40 -14 -53
-7 -12 6 -33 6 -58 1 -59 -14 -119 -12 -165 7 -38 15 -43 15 -69 0 -16 -10
-37 -17 -47 -17 -10 0 -24 -5 -30 -11 -13 -13 -33 -4 -33 17 0 8 -4 14 -10 14
-5 0 -10 -4 -10 -9 0 -13 -141 -21 -189 -10 -26 6 -48 6 -55 1 -19 -16 -129
-31 -149 -20 -9 5 -22 6 -27 3 -6 -3 -43 -8 -82 -9 -40 -2 -89 -6 -109 -10
-31 -5 -37 -3 -46 17 -6 12 -9 46 -8 75 1 29 -1 55 -6 58 -14 8 -10 50 5 64
11 8 12 18 6 35 -5 12 -6 85 -4 161 4 105 2 136 -6 128 -7 -7 -13 -39 -15 -72
-2 -33 -8 -69 -13 -79 -13 -26 -22 -251 -11 -281 7 -19 6 -29 -7 -43 -9 -10
-13 -22 -10 -27 3 -6 -5 -17 -19 -26 -13 -9 -35 -27 -47 -41 -25 -27 -12 -26
-303 -24 -11 0 -37 7 -57 16 -41 17 -73 11 -64 -12 7 -19 -25 -20 -74 -2 -24
8 -35 18 -35 32 0 16 -6 19 -30 17 -16 -2 -41 -11 -55 -21 -14 -10 -35 -21
-47 -25 -12 -4 -27 -13 -33 -21 -10 -12 -39 -15 -129 -15 -64 0 -121 4 -127 8
-6 4 -19 25 -29 47 -25 54 -64 105 -81 105 -20 0 -17 -24 6 -45 11 -10 20 -23
20 -28 0 -6 7 -18 16 -28 14 -15 13 -19 -10 -45 -23 -28 -25 -28 -32 -9 -4 11
-20 32 -36 47 -16 14 -28 37 -28 50 0 14 -11 35 -24 47 -21 19 -23 27 -15 54
10 36 -7 91 -51 167 -15 25 -29 57 -32 70 -8 34 -28 90 -44 120 -9 18 -9 31
-2 43 18 34 -8 337 -39 435 -19 62 -14 70 50 89 57 17 75 16 104 -6 30 -24
121 -52 166 -51 44 1 159 -23 235 -48 34 -12 70 -18 78 -15 9 3 29 -4 46 -17
25 -18 32 -20 39 -9 13 21 5 34 -22 37 -13 2 -33 15 -45 30 -20 25 -22 25 -67
13 -26 -8 -54 -11 -63 -7 -15 6 -15 8 2 28 19 21 19 21 -5 15 -16 -4 -34 1
-52 14 -30 21 -59 25 -75 9 -11 -11 -44 -3 -44 10 0 5 -14 11 -31 15 -17 4
-34 15 -36 24 -7 24 -57 61 -72 52z m-901 -1256 c10 -13 9 -15 -9 -15 -12 0
-21 6 -21 15 0 8 4 15 9 15 5 0 14 -7 21 -15z m553 -16 c-19 -6 -40 -5 -55 0
-18 8 -12 10 32 9 50 0 52 -1 23 -9z m-605 -21 c-6 -16 -33 -22 -56 -13 -14 5
-14 7 -2 15 22 14 62 12 58 -2z" />
		<path d="M6902 4155 c2 -22 8 -39 13 -37 13 4 9 52 -5 66 -8 8 -10 0 -8 -29z" />
		<path d="M6776 4165 c-11 -29 -6 -59 15 -94 11 -18 22 -31 25 -29 6 7 -16 121
-25 131 -5 5 -11 1 -15 -8z" />
		<path d="M570 4151 c0 -40 60 -53 74 -15 6 15 1 18 -46 28 -23 5 -28 3 -28
-13z" />
		<path d="M2034 4143 c-16 -49 -53 -110 -86 -144 -20 -21 -37 -46 -37 -56 0
-10 -3 -30 -7 -45 -8 -33 7 -37 36 -10 31 29 120 208 120 242 0 33 -17 41 -26
13z" />
		<path d="M6378 4144 c-14 -14 -20 -15 -32 -5 -19 16 -66 6 -66 -13 0 -19 21
-26 42 -15 11 6 29 3 51 -7 33 -16 37 -16 81 6 25 12 46 26 46 31 0 5 -18 9
-39 9 -22 0 -45 2 -53 5 -7 3 -21 -2 -30 -11z" />
		<path d="M2153 4127 c-6 -6 -18 -34 -28 -62 -10 -27 -29 -61 -42 -76 -12 -14
-23 -34 -23 -45 0 -11 -11 -35 -24 -55 -13 -19 -30 -54 -37 -77 -11 -39 -11
-45 8 -63 19 -20 19 -22 3 -52 -33 -62 -55 -97 -62 -97 -4 0 -24 -16 -44 -36
l-36 -37 28 7 c16 4 36 14 45 22 8 8 23 14 31 14 19 0 96 35 122 55 11 8 26
15 32 15 7 0 29 11 48 24 35 23 35 24 16 41 -25 23 -25 59 0 100 11 18 23 53
26 79 6 38 4 46 -9 46 -10 0 -19 -12 -23 -27 -4 -16 -13 -37 -20 -48 -8 -11
-14 -28 -14 -38 0 -10 -9 -36 -20 -57 -17 -33 -26 -40 -51 -40 -39 0 -47 22
-27 74 9 23 21 57 28 76 17 47 25 66 49 122 12 26 21 51 21 56 0 5 7 15 15 22
16 14 20 56 6 64 -5 3 -13 0 -18 -7z" />
		<path d="M6218 4129 c-25 -14 -22 -29 5 -29 29 0 51 15 43 29 -9 14 -25 14
-48 0z" />
		<path d="M4175 4100 c-4 -6 -18 -10 -33 -10 -15 0 -34 -4 -41 -9 -9 -6 -22 -6
-34 0 -22 12 -108 -5 -145 -29 -13 -8 -34 -12 -50 -9 -17 3 -38 -2 -58 -14
-33 -20 -82 -25 -146 -16 -25 3 -38 1 -38 -7 0 -6 -9 -17 -20 -24 -21 -13 -28
-52 -9 -52 32 0 219 33 254 45 99 33 150 45 191 45 23 0 46 5 49 10 3 6 19 10
35 10 25 0 80 36 80 53 0 10 -29 16 -35 7z" />
		<path d="M1546 4081 c-7 -10 31 -37 58 -42 11 -2 24 -13 30 -24 6 -11 12 -22
13 -24 3 -5 33 20 33 28 0 3 -14 21 -31 39 -22 24 -39 32 -64 32 -19 0 -36 -4
-39 -9z" />
		<path d="M5990 4080 c0 -5 7 -10 15 -10 8 0 15 5 15 10 0 6 -7 10 -15 10 -8 0
-15 -4 -15 -10z" />
		<path d="M6650 4040 c0 -11 5 -20 10 -20 6 0 10 9 10 20 0 11 -4 20 -10 20 -5
0 -10 -9 -10 -20z" />
		<path d="M107 4028 c-6 -4 -33 -5 -60 -2 l-47 7 0 -33 0 -32 52 3 c81 4 105 0
123 -17 14 -15 18 -14 43 2 29 19 97 20 119 2 21 -17 58 -5 61 20 4 29 23 28
50 -3 26 -30 32 -31 65 -5 24 19 29 20 61 6 37 -15 46 -13 46 15 0 45 -16 48
-266 47 -129 -1 -240 -6 -247 -10z" />
		<path d="M951 3971 c-20 -36 -11 -65 47 -151 39 -57 70 -92 96 -106 22 -13 41
-30 42 -39 4 -24 13 -30 26 -17 9 9 9 15 1 23 -6 6 -9 28 -6 50 3 21 2 39 -3
40 -55 5 -88 32 -123 102 -17 34 -31 67 -31 73 0 6 -9 19 -19 28 -19 17 -20
17 -30 -3z" />
		<path d="M4222 3908 c-12 -38 -19 -74 -16 -80 10 -15 44 23 44 49 0 13 5 32
12 42 9 14 8 23 -3 39 -14 19 -16 16 -37 -50z" />
		<path d="M5130 3960 c0 -5 7 -10 15 -10 8 0 15 5 15 10 0 6 -7 10 -15 10 -8 0
-15 -4 -15 -10z" />
		<path d="M6806 3915 c4 -8 16 -15 29 -15 12 0 28 7 35 15 11 13 7 15 -28 15
-33 0 -40 -3 -36 -15z" />
		<path d="M3462 3866 c-11 -29 -10 -40 5 -70 22 -48 46 -44 53 9 6 43 -12 95
-33 95 -7 0 -19 -15 -25 -34z" />
		<path d="M855 3869 c-10 -15 3 -25 16 -12 7 7 7 13 1 17 -6 3 -14 1 -17 -5z" />
		<path d="M1905 3820 c-4 -6 -34 -24 -68 -41 -79 -40 -132 -84 -148 -120 -7
-18 -10 -54 -7 -94 3 -35 2 -67 -2 -72 -11 -12 -20 -70 -12 -78 4 -4 8 -25 8
-48 1 -23 5 -54 9 -69 5 -17 2 -38 -9 -59 -14 -29 -14 -34 -1 -49 8 -9 15 -33
15 -53 0 -25 5 -37 14 -37 8 0 21 -3 30 -6 24 -9 22 61 -1 75 -15 8 -17 23
-15 106 1 53 7 105 13 116 8 15 5 26 -11 48 -24 35 -26 64 -5 81 11 9 14 22
10 40 -11 49 43 106 179 191 22 14 41 31 40 37 -1 7 -2 19 -2 27 -2 17 -28 20
-37 5z" />
		<path d="M220 3811 c0 -12 29 -23 41 -15 18 10 9 24 -16 24 -14 0 -25 -4 -25
-9z" />
		<path d="M3114 3799 c-3 -6 -2 -15 4 -21 13 -13 32 -2 32 18 0 16 -26 19 -36
3z" />
		<path d="M2254 3744 c-9 -35 8 -51 41 -36 30 14 33 37 6 52 -30 16 -40 12 -47
-16z" />
		<path d="M933 3744 c3 -11 8 -29 12 -40 3 -12 31 -46 63 -75 31 -30 62 -67 67
-84 7 -22 17 -31 36 -33 60 -7 61 65 2 84 -17 5 -55 38 -87 74 -32 35 -67 71
-78 78 -18 13 -20 13 -15 -4z" />
		<path d="M3510 3732 c0 -8 8 -25 19 -38 21 -27 35 -18 43 27 4 23 1 25 -29 25
-21 0 -33 -5 -33 -14z" />
		<path d="M1525 3720 c-8 -13 4 -32 16 -25 12 8 12 35 0 35 -6 0 -13 -4 -16
-10z" />
		<path d="M1193 3664 c4 -4 17 -12 29 -18 15 -8 25 -23 28 -46 6 -43 33 -48 38
-8 4 34 -39 78 -76 78 -14 0 -22 -3 -19 -6z" />
		<path d="M8350 3625 c0 -25 4 -35 13 -32 6 2 12 16 12 32 0 16 -6 30 -12 33
-9 2 -13 -8 -13 -33z" />
		<path d="M2356 3554 c-9 -22 -8 -24 9 -24 8 0 15 9 15 20 0 24 -15 27 -24 4z" />
		<path d="M8490 3550 c0 -11 5 -20 10 -20 6 0 10 9 10 20 0 11 -4 20 -10 20 -5
0 -10 -9 -10 -20z" />
		<path d="M2960 3545 c-10 -12 -8 -16 14 -25 14 -5 26 -17 26 -27 0 -13 3 -14
12 -5 20 20 51 13 84 -19 21 -21 39 -30 55 -27 22 3 19 8 -36 61 -53 51 -65
57 -101 57 -25 0 -47 -6 -54 -15z" />
		<path d="M8339 3539 c-9 -18 -8 -24 4 -30 23 -13 49 -58 40 -72 -13 -21 -11
-77 4 -77 10 0 13 -25 15 -107 2 -156 3 -167 11 -181 6 -9 77 -12 298 -12
l289 0 0 40 0 40 -41 0 c-22 0 -49 5 -60 10 -13 7 -25 7 -38 1 -10 -6 -36 -11
-57 -11 -86 -1 -304 9 -314 15 -5 3 -10 21 -10 39 0 17 -4 36 -9 41 -6 6 -15
44 -22 85 -7 41 -18 82 -25 91 -8 8 -14 28 -14 42 0 15 -9 35 -20 44 -13 12
-18 24 -14 40 8 30 -21 32 -37 2z" />
		<path d="M994 3507 c3 -10 6 -23 6 -28 0 -5 5 -9 10 -9 14 0 12 13 -6 36 -14
17 -15 17 -10 1z" />
		<path d="M2340 3478 c-1 -33 -29 -78 -49 -78 -6 0 -11 -4 -11 -9 0 -14 18 -23
24 -12 3 5 15 7 26 4 15 -4 20 0 20 15 0 11 7 25 15 32 18 15 20 51 3 68 -20
20 -28 14 -28 -20z" />
		<path d="M2096 3484 c-9 -22 -8 -24 9 -24 8 0 15 9 15 20 0 24 -15 27 -24 4z" />
		<path d="M3570 3480 c-18 -33 -5 -72 23 -68 18 2 21 8 19 33 -2 17 -10 36 -17
44 -11 11 -15 10 -25 -9z" />
		<path d="M975 3400 c-7 -12 2 -30 16 -30 5 0 9 9 9 20 0 21 -15 27 -25 10z" />
		<path d="M830 3341 c0 -11 4 -21 9 -21 18 0 21 18 6 30 -13 10 -15 9 -15 -9z" />
		<path d="M2340 3322 c0 -36 8 -44 31 -31 24 13 24 36 0 49 -28 15 -31 13 -31
-18z" />
		<path d="M3089 3334 c-8 -10 -10 -20 -3 -28 5 -7 18 -26 28 -42 33 -49 69 -84
87 -84 9 0 24 -11 33 -25 18 -28 44 -33 52 -10 9 24 -36 83 -68 89 -29 6 -68
56 -68 87 0 15 -19 29 -40 29 -4 0 -13 -7 -21 -16z" />
		<path d="M3591 3299 c-8 -24 -8 -36 0 -45 16 -19 29 -17 29 4 0 10 5 23 11 29
15 15 4 43 -15 43 -8 0 -19 -14 -25 -31z" />
		<path d="M848 3266 c-20 -15 -24 -66 -8 -82 6 -6 14 -43 17 -82 6 -68 7 -72
31 -72 24 0 24 2 20 60 -3 37 -11 66 -21 78 -13 14 -15 25 -9 43 5 13 6 34 1
47 -10 26 -9 25 -31 8z" />
		<path d="M3620 3193 c1 -5 7 -19 15 -33 8 -14 14 -42 15 -62 0 -46 13 -55 34
-23 21 32 21 38 -11 84 -25 36 -54 54 -53 34z" />
		<path d="M6235 3177 c-4 -10 -5 -21 -1 -24 10 -10 18 4 13 24 -4 17 -4 17 -12
0z" />
		<path d="M8570 3180 c0 -5 7 -10 15 -10 8 0 15 5 15 10 0 6 -7 10 -15 10 -8 0
-15 -4 -15 -10z" />
		<path d="M3423 3168 c-6 -7 -13 -21 -16 -31 -6 -15 -2 -18 16 -15 16 2 23 11
25 31 3 28 -9 36 -25 15z" />
		<path d="M2550 3100 c0 -5 7 -10 15 -10 8 0 15 5 15 10 0 6 -7 10 -15 10 -8 0
-15 -4 -15 -10z" />
		<path d="M1733 3048 c-6 -7 -13 -24 -15 -38 -3 -23 -7 -25 -47 -22 -34 2 -51
-3 -76 -22 -18 -14 -35 -22 -39 -19 -15 15 -76 30 -107 25 -19 -2 -42 -13 -52
-23 -13 -14 -32 -19 -71 -19 -41 0 -57 -5 -72 -21 -36 -39 2 -43 286 -24 41 2
120 7 175 10 55 3 104 10 109 15 9 9 3 26 -23 70 -5 8 -13 28 -18 45 -9 32
-34 43 -50 23z" />
		<path d="M3330 3046 c0 -9 7 -16 16 -16 9 0 14 5 12 12 -6 18 -28 21 -28 4z" />
		<path d="M7356 3011 c-3 -5 8 -11 24 -15 17 -3 357 -6 758 -7 400 0 736 -1
747 -2 70 -3 115 4 115 18 0 13 -98 15 -819 15 -460 0 -822 -4 -825 -9z" />
		<path d="M852 2983 c-12 -2 -27 -13 -32 -24 -6 -10 -15 -19 -21 -19 -6 0 -24
-10 -41 -21 -25 -18 -36 -20 -61 -12 -22 6 -39 5 -56 -3 -16 -8 -32 -9 -48 -3
-14 5 -35 6 -48 3 -13 -3 -32 -1 -43 5 -15 8 -23 8 -28 0 -3 -6 -17 -9 -30 -6
-14 2 -27 0 -30 -5 -4 -5 -17 -7 -31 -3 -14 3 -31 1 -39 -6 -11 -9 -21 -8 -45
1 -24 10 -38 10 -71 1 -22 -7 -76 -11 -118 -10 -83 3 -110 -7 -110 -42 0 -18
10 -19 154 -19 94 0 157 4 161 10 4 6 18 10 33 9 99 -4 589 14 597 22 5 5 21
9 36 9 33 0 45 15 29 35 -9 11 -17 11 -35 3 -32 -14 -53 3 -57 45 -3 33 -17
40 -66 30z" />
		<path d="M1082 2899 c2 -20 10 -25 40 -27 21 -2 45 1 55 6 14 8 10 12 -26 22
-23 6 -49 14 -58 17 -11 4 -14 0 -11 -18z" />
		<path d="M1065 2831 c-19 -8 -19 -8 3 -20 12 -7 28 -8 35 -4 6 4 46 8 87 9 41
0 107 2 145 4 l70 3 -75 7 c-102 10 -241 10 -265 1z" />
		<path d="M644 2791 c6 -10 92 -8 102 2 4 4 -18 7 -50 7 -31 0 -55 -4 -52 -9z" />
		<path d="M8067 2794 c-1 -1 -137 -4 -302 -7 -165 -4 -334 -11 -376 -17 -55 -8
-96 -8 -145 0 -79 13 -796 12 -1169 -1 -472 -16 -565 -19 -915 -25 -195 -3
-378 -7 -405 -9 -28 -2 -147 -6 -265 -10 -118 -3 -323 -10 -455 -15 -132 -6
-330 -12 -440 -15 -110 -3 -247 -8 -305 -12 -58 -3 -114 -5 -124 -4 -25 4 -96
-18 -117 -36 -10 -8 -43 -13 -92 -13 -41 0 -87 -4 -102 -10 -22 -9 -27 -7 -37
16 l-12 26 -225 -6 c-125 -3 -244 -6 -266 -6 -30 0 -36 -2 -25 -10 8 -5 25
-10 38 -10 30 0 28 -11 -8 -45 -32 -31 -23 -53 14 -33 29 16 352 17 382 2 19
-10 31 -10 64 3 37 15 42 15 58 0 24 -22 130 -22 261 -2 82 12 96 12 105 0 7
-9 20 -12 34 -9 27 8 29 24 2 24 -11 0 -20 5 -20 10 0 6 9 10 20 10 11 0 20
-4 20 -9 0 -16 163 -11 182 5 13 13 20 13 36 3 17 -10 31 -10 75 3 47 13 60
13 87 1 18 -7 52 -13 77 -13 36 0 46 4 50 20 8 30 43 37 63 12 21 -26 129 -34
155 -12 13 11 25 11 61 2 25 -7 56 -9 69 -6 14 3 38 -1 56 -10 31 -15 33 -15
51 4 10 11 24 20 31 20 7 0 18 5 24 11 6 6 43 12 81 14 61 1 71 -1 75 -17 7
-24 24 -23 37 2 12 22 49 26 80 10 13 -7 21 -6 30 5 10 12 37 15 117 15 101 0
105 -1 100 -20 -8 -30 29 -47 54 -25 10 10 37 18 61 19 24 1 53 8 65 14 32 18
54 15 60 -8 3 -11 12 -20 19 -20 8 0 19 9 26 20 16 25 70 27 92 4 15 -14 19
-13 47 7 25 18 35 20 50 11 11 -7 20 -8 24 -2 8 13 205 1 223 -13 8 -6 16 -6
25 1 7 6 23 9 35 5 16 -4 22 -1 22 10 0 16 27 16 169 -2 41 -6 78 -8 83 -5 5
3 33 10 61 14 29 5 70 14 92 20 70 20 80 18 80 -13 -1 -25 2 -27 25 -22 15 3
38 1 52 -4 21 -8 29 -6 44 10 18 20 49 25 59 9 19 -30 43 -29 96 5 40 26 64
35 96 35 26 0 45 -5 47 -12 3 -7 8 -26 11 -43 4 -16 10 -24 12 -18 3 8 14 11
29 7 13 -3 30 -2 37 4 6 5 26 12 42 15 17 3 40 8 53 12 16 6 22 3 22 -9 0 -19
11 -21 27 -5 8 8 17 8 31 0 16 -8 21 -7 26 4 3 9 18 15 35 15 16 0 33 5 37 12
5 8 11 6 20 -7 16 -21 44 -22 106 -5 42 12 50 12 81 -4 25 -14 38 -16 53 -8
21 11 47 3 84 -27 24 -20 25 -21 8 -51 -9 -16 -13 -30 -8 -30 6 0 10 6 10 13
0 6 9 1 20 -13 17 -21 21 -23 30 -10 10 16 5 46 -12 68 -8 9 1 17 34 31 37 17
66 20 208 20 91 0 177 -5 192 -11 22 -8 32 -6 56 12 21 15 39 21 57 17 16 -2
39 2 55 11 17 10 34 13 46 8 10 -5 49 -7 86 -6 39 1 69 -3 73 -10 4 -6 16 -8
26 -5 11 4 25 2 32 -3 8 -7 29 -7 61 -1 43 8 52 7 71 -11 38 -36 61 -16 33 30
-15 23 -6 34 21 25 12 -3 21 -16 23 -33 3 -26 5 -27 69 -27 42 0 72 -5 83 -14
12 -10 20 -11 27 -4 8 8 20 2 40 -20 16 -16 29 -34 29 -38 0 -4 11 -24 24 -43
13 -19 26 -53 30 -75 10 -64 26 -48 26 25 0 55 -5 76 -31 125 -41 77 -35 94
29 84 44 -7 148 -10 285 -6 l57 1 0 49 0 49 -40 7 c-31 5 -887 4 -893 -1z
m403 -60 c6 -7 -13 -36 -33 -48 -12 -8 -23 -5 -43 10 -33 24 -33 37 -2 46 22
6 68 1 78 -8z m38 -43 c3 -8 -1 -12 -9 -9 -7 2 -15 10 -17 17 -3 8 1 12 9 9 7
-2 15 -10 17 -17z" />
		<path d="M93 2764 c12 -12 194 -16 201 -5 5 8 -25 11 -100 11 -59 0 -105 -3
-101 -6z" />
		<path d="M2141 2651 c-51 -4 -76 -10 -79 -20 -4 -11 2 -12 24 -6 16 5 54 9 84
9 30 1 56 5 58 11 4 12 2 12 -87 6z" />
		<path d="M1775 2623 c-22 -3 -44 -8 -50 -13 -6 -5 -16 -6 -22 -2 -31 19 -539
-12 -563 -34 -25 -24 0 -35 56 -24 27 6 134 13 237 16 162 5 192 3 213 -11 29
-18 34 -62 7 -49 -10 4 -29 7 -43 6 -14 0 -53 -1 -88 -2 -68 -2 -74 -10 -31
-42 21 -16 34 -17 109 -9 102 11 155 23 194 42 48 24 14 47 -36 24 -14 -5 -18
-2 -18 13 0 15 9 21 35 26 38 7 75 -7 75 -28 0 -18 43 -34 108 -39 29 -2 60
-11 70 -21 10 -9 30 -16 45 -16 14 0 48 -5 76 -12 40 -9 53 -9 66 2 47 39 -24
84 -155 99 -81 9 -140 24 -140 36 0 3 11 10 25 15 48 18 27 30 -52 28 -43 -1
-96 -3 -118 -5z" />
		<path d="M8964 2623 c-20 -4 -22 -12 -26 -86 -2 -45 -1 -122 3 -172 3 -49 3
-101 -1 -115 -11 -40 -3 -50 30 -37 l30 11 0 203 c0 112 -3 202 -7 202 -5 -1
-18 -4 -29 -6z" />
		<path d="M749 2576 c-3 -3 -56 -6 -119 -7 -63 0 -135 -6 -160 -11 -25 -5 -103
-12 -175 -14 -71 -3 -160 -9 -198 -14 -38 -5 -76 -6 -83 -3 -10 3 -14 -3 -14
-18 0 -21 5 -24 34 -24 18 0 41 6 50 14 13 11 19 11 31 1 8 -6 19 -9 25 -5 9
6 96 11 305 19 22 1 46 -3 53 -8 8 -6 21 -4 36 3 19 11 29 10 52 -2 18 -9 36
-11 49 -6 11 4 53 8 93 8 68 1 72 2 72 24 0 33 -33 60 -51 43z" />
		<path d="M973 2539 c-18 -12 -33 -27 -33 -35 0 -19 -34 -18 -50 1 -15 18 -43
20 -38 3 3 -7 14 -17 26 -23 38 -17 34 -75 -5 -75 -10 0 -13 -6 -9 -16 3 -9 6
-25 6 -37 l0 -21 20 22 c12 12 26 22 33 22 18 0 50 57 37 65 -23 14 -8 33 31
38 53 7 63 17 48 50 -15 32 -24 33 -66 6z" />
		<path d="M7683 2538 c-4 -7 -8 -35 -9 -63 0 -27 -3 -56 -5 -64 -2 -8 3 -16 12
-18 12 -3 17 7 22 44 3 26 9 63 13 81 5 25 3 32 -9 32 -9 0 -19 -6 -24 -12z" />
		<path d="M1283 2494 c3 -4 21 -8 39 -9 18 -1 48 -5 66 -9 26 -6 32 -4 32 8 0
13 -13 16 -72 16 -39 0 -68 -3 -65 -6z" />
		<path d="M7197 2493 c-4 -3 -7 -23 -7 -43 0 -20 -7 -45 -15 -56 -27 -35 -16
-47 18 -18 28 24 32 33 32 75 0 45 -10 60 -28 42z" />
		<path d="M337 2474 c-4 -4 -7 -16 -7 -27 0 -16 5 -18 33 -13 17 3 38 7 45 8 7
1 11 8 10 17 -3 17 -67 28 -81 15z" />
		<path d="M2240 2446 c0 -9 7 -16 16 -16 17 0 14 22 -4 28 -7 2 -12 -3 -12 -12z" />
		<path d="M55 2441 c-3 -6 -3 -31 0 -55 5 -28 3 -46 -4 -50 -13 -9 -15 -56 -2
-56 10 0 31 54 31 81 0 9 14 31 31 48 l31 31 -25 0 c-14 0 -32 3 -40 6 -8 3
-18 1 -22 -5z" />
		<path d="M1104 2435 c-23 -17 -9 -35 27 -35 34 0 105 27 96 36 -12 12 -106 12
-123 -1z" />
		<path d="M1015 2430 c-4 -7 0 -19 9 -28 13 -13 20 -14 34 -6 9 6 17 17 17 25
0 17 -50 24 -60 9z" />
		<path d="M8613 2392 c10 -10 17 -27 17 -38 0 -10 4 -25 9 -32 6 -10 10 -4 14
18 8 37 -10 70 -37 70 -18 0 -18 -1 -3 -18z" />
		<path d="M660 2370 c20 -13 43 -13 35 0 -3 6 -16 10 -28 10 -18 0 -19 -2 -7
-10z" />
		<path d="M1525 2340 c-4 -6 6 -10 22 -10 22 0 25 2 13 10 -19 12 -27 12 -35 0z" />
		<path d="M7650 2326 c0 -14 2 -26 4 -26 2 0 12 -3 21 -6 13 -6 16 -1 13 22 -4
38 -38 47 -38 10z" />
		<path d="M1090 2313 c0 -29 12 -63 21 -63 5 0 16 14 25 31 13 26 14 33 2 40
-22 15 -48 10 -48 -8z" />
		<path d="M518 2313 c-30 -8 -22 -35 10 -31 15 2 27 9 27 17 0 16 -12 21 -37
14z" />
		<path d="M5042 2288 c5 -15 67 -18 71 -3 1 6 -15 11 -37 13 -28 3 -37 0 -34
-10z" />
		<path d="M930 2267 c0 -14 19 -37 32 -37 16 0 7 30 -12 40 -15 8 -20 8 -20 -3z" />
		<path d="M8626 2225 c-10 -21 -25 -45 -34 -51 -14 -10 -14 -14 -2 -29 11 -13
11 -22 1 -51 -11 -30 -10 -40 5 -72 l18 -37 7 40 c5 22 8 58 8 81 1 22 6 45
12 51 5 5 9 32 7 59 l-4 49 -18 -40z" />
		<path d="M7657 2236 c-4 -10 -5 -21 -2 -24 9 -9 17 6 13 25 -3 17 -4 17 -11
-1z" />
		<path d="M46 2213 c-11 -11 -6 -23 9 -23 8 0 15 4 15 9 0 13 -16 22 -24 14z" />
		<path d="M7127 2206 c-6 -16 42 -55 61 -49 22 8 14 50 -10 57 -35 9 -45 7 -51
-8z" />
		<path d="M950 2185 c0 -26 7 -29 34 -19 27 10 20 44 -9 44 -20 0 -25 -5 -25
-25z" />
		<path d="M2970 2180 c-14 -11 -31 -20 -39 -20 -28 0 -91 -85 -91 -124 0 -59
54 -31 96 49 17 32 36 61 41 62 5 2 26 -8 47 -22 40 -27 76 -33 76 -12 0 18
-72 87 -90 87 -8 0 -26 -9 -40 -20z" />
		<path d="M8936 2143 c-3 -21 -3 -130 0 -243 3 -113 5 -269 4 -347 0 -96 4
-149 12 -162 10 -16 9 -25 -1 -44 -14 -27 -12 -72 4 -72 6 0 11 15 13 33 2 20
9 32 18 32 9 0 14 11 14 30 0 20 -5 30 -15 30 -8 0 -15 9 -15 20 0 11 7 20 15
20 11 0 15 11 15 40 0 29 -4 40 -15 40 -8 0 -15 9 -15 20 0 11 7 20 15 20 13
0 15 41 15 310 l0 310 -29 0 c-26 0 -30 -4 -35 -37z" />
		<path d="M476 2159 c6 -10 65 -39 80 -39 4 0 -3 11 -16 25 -23 24 -78 36 -64
14z" />
		<path d="M7428 2148 c-6 -17 1 -38 13 -38 5 0 9 11 9 25 0 26 -14 34 -22 13z" />
		<path d="M7639 2138 c-3 -27 -5 -34 -16 -54 -14 -24 -12 -531 1 -552 7 -12 46
-17 46 -6 0 3 -5 14 -10 24 -8 16 -6 21 12 31 40 21 48 44 20 53 -14 5 -18 17
-18 62 -1 30 -7 66 -15 80 -11 21 -10 29 5 55 16 27 16 32 2 61 -20 39 -20 38
6 35 23 -2 39 29 21 42 -4 3 -16 16 -27 28 -14 18 -16 26 -7 36 9 11 8 17 -4
27 -19 16 -19 30 -1 30 20 0 26 12 19 38 -6 23 -32 30 -34 10z" />
		<path d="M1205 2119 c-4 -6 -5 -13 -2 -16 7 -7 27 6 27 18 0 12 -17 12 -25 -2z" />
		<path d="M4102 2118 c3 -7 14 -14 26 -16 11 -2 26 -10 32 -18 14 -16 30 -19
30 -5 0 10 -65 51 -81 51 -6 0 -9 -6 -7 -12z" />
		<path d="M4977 2113 c-15 -14 -6 -23 23 -23 32 0 40 14 14 24 -20 8 -29 8 -37
-1z" />
		<path d="M4772 2084 c14 -15 31 -23 37 -19 8 4 3 13 -13 26 -36 29 -55 23 -24
-7z" />
		<path d="M5363 2093 c-7 -3 -13 -11 -13 -20 0 -17 41 -14 47 3 4 13 -16 23
-34 17z" />
		<path d="M5005 2065 l-40 -12 37 -18 c21 -10 40 -27 44 -37 10 -32 55 -78 76
-78 12 0 22 8 25 21 4 13 23 28 49 40 24 10 44 23 44 28 0 19 -36 30 -78 24
-35 -5 -46 -1 -72 21 -17 14 -35 26 -38 25 -4 -1 -25 -7 -47 -14z" />
		<path d="M3104 2051 c-16 -10 -41 -22 -55 -26 -13 -4 -37 -18 -54 -30 -16 -13
-47 -30 -68 -39 -27 -11 -38 -21 -35 -33 4 -21 55 -30 71 -14 6 6 19 11 28 11
9 0 19 9 22 19 3 12 17 22 38 26 39 8 69 31 69 53 0 9 7 24 17 34 20 23 7 22
-33 -1z" />
		<path d="M6300 2056 c0 -9 7 -16 16 -16 9 0 14 5 12 12 -6 18 -28 21 -28 4z" />
		<path d="M7280 2042 c0 -32 31 -85 43 -73 7 7 7 14 0 23 -6 7 -13 24 -15 37
-4 30 -28 41 -28 13z" />
		<path d="M3950 2045 c0 -17 35 -55 51 -55 11 0 28 -9 39 -20 18 -18 23 -19 53
-7 l32 14 -42 21 c-23 12 -49 22 -56 22 -8 0 -20 7 -27 15 -12 14 -50 21 -50
10z" />
		<path d="M30 1985 c0 -8 5 -15 10 -15 6 0 10 7 10 15 0 8 -4 15 -10 15 -5 0
-10 -7 -10 -15z" />
		<path d="M4846 1965 c-9 -24 10 -53 36 -57 20 -3 23 -9 23 -53 0 -27 6 -61 14
-75 8 -13 15 -40 17 -59 2 -21 13 -44 28 -60 29 -29 33 -17 11 36 -22 52 -18
123 7 123 5 0 35 -17 66 -37 45 -30 66 -38 106 -38 50 -1 94 -17 108 -39 4 -6
8 -26 8 -44 0 -22 4 -32 13 -30 8 3 13 30 15 78 l3 73 -56 -6 c-67 -7 -141 13
-183 48 -17 14 -33 25 -37 25 -4 0 -24 14 -45 30 -21 17 -42 30 -46 30 -4 0
-25 16 -45 36 -30 29 -37 33 -43 19z" />
		<path d="M1067 1963 c-4 -3 -4 -22 -1 -41 5 -24 2 -37 -7 -43 -7 -4 -10 -11
-6 -15 4 -4 13 -2 19 4 7 7 25 12 40 12 32 0 37 16 9 25 -12 3 -21 17 -23 32
-3 27 -18 39 -31 26z" />
		<path d="M7430 1933 c0 -5 5 -15 10 -23 8 -12 10 -11 10 8 0 12 -4 22 -10 22
-5 0 -10 -3 -10 -7z" />
		<path d="M8554 1915 c-11 -17 -16 -46 -16 -89 0 -44 -4 -69 -14 -77 -8 -6 -14
-25 -14 -41 0 -17 -7 -45 -16 -64 -9 -19 -13 -38 -9 -42 4 -4 10 -1 12 6 3 7
14 21 24 31 19 18 41 104 32 127 -2 6 1 32 8 55 7 24 14 53 14 64 1 11 6 28
10 38 11 26 -12 21 -31 -8z" />
		<path d="M6176 1905 c-9 -26 -8 -26 32 -23 25 2 37 8 37 18 0 22 -61 26 -69 5z" />
		<path d="M5280 1887 c0 -27 13 -36 26 -16 3 6 -1 18 -10 27 -15 15 -16 14 -16
-11z" />
		<path d="M6446 1828 c3 -91 2 -88 13 -88 14 0 21 109 9 136 -18 40 -24 28 -22
-48z" />
		<path d="M897 1873 c-12 -11 -8 -23 8 -23 8 0 15 7 15 15 0 16 -12 20 -23 8z" />
		<path d="M1170 1870 c-11 -7 -5 -10 23 -10 20 0 37 5 37 10 0 13 -40 13 -60 0z" />
		<path d="M1325 1871 c-6 -11 25 -31 49 -31 21 0 31 21 15 31 -19 12 -56 11
-64 0z" />
		<path d="M7107 1874 c-4 -4 -7 -15 -7 -25 0 -27 -19 -34 -35 -13 -13 18 -14
18 -21 1 -3 -10 -1 -29 6 -41 8 -16 9 -29 2 -42 -23 -44 -42 -93 -42 -112 0
-12 -4 -32 -10 -46 -6 -17 -6 -36 2 -57 8 -24 8 -37 0 -50 -7 -12 -8 -20 -2
-24 17 -10 11 -25 -13 -34 -27 -10 -48 -85 -40 -139 4 -25 0 -42 -16 -63 -20
-27 -21 -31 -6 -65 8 -20 15 -44 15 -54 0 -15 27 -36 36 -27 2 1 -1 47 -6 101
-11 107 -7 140 20 171 15 18 28 54 46 130 4 17 8 32 9 35 1 3 7 32 14 65 7 33
20 74 27 92 8 17 14 44 14 60 0 16 7 38 15 50 11 15 13 32 7 58 -4 20 -11 33
-15 29z" />
		<path d="M941 1851 c-9 -6 -10 -11 -2 -15 13 -8 31 1 31 15 0 11 -11 11 -29 0z" />
		<path d="M6142 1848 c-14 -14 -16 -54 -2 -63 17 -11 80 31 80 54 0 14 -13 14
-28 -1 -9 -9 -13 -7 -18 5 -7 20 -16 21 -32 5z" />
		<path d="M1374 1817 c-8 -23 3 -50 19 -44 13 4 11 36 -4 51 -5 6 -11 3 -15 -7z" />
		<path d="M7315 1790 c-12 -37 5 -94 43 -145 20 -27 46 -77 57 -110 24 -73 48
-81 53 -18 2 27 -3 51 -12 65 -9 12 -16 30 -16 40 0 10 -15 35 -34 55 -18 21
-44 59 -56 86 -12 26 -24 47 -25 47 -2 0 -7 -9 -10 -20z" />
		<path d="M5537 1766 c-7 -19 18 -40 39 -32 8 3 14 14 12 23 -4 22 -43 29 -51
9z" />
		<path d="M5995 1771 c-10 -17 9 -20 30 -5 18 14 18 14 -2 14 -12 0 -24 -4 -28
-9z" />
		<path d="M1263 1743 c-7 -2 -13 -14 -13 -25 0 -28 34 -19 38 10 3 22 -2 25
-25 15z" />
		<path d="M5750 1736 c0 -18 16 -29 30 -21 13 8 1 35 -16 35 -8 0 -14 -6 -14
-14z" />
		<path d="M1483 1728 c-17 -27 -30 -77 -23 -88 6 -9 13 -9 29 1 11 8 21 18 21
23 0 5 9 20 21 32 12 12 18 27 14 33 -9 15 -52 14 -62 -1z" />
		<path d="M1180 1720 c-12 -8 -11 -10 8 -10 12 0 22 5 22 10 0 13 -11 13 -30 0z" />
		<path d="M5908 1678 c-7 -20 15 -87 30 -93 27 -10 31 6 12 43 -11 20 -20 42
-20 49 0 16 -17 17 -22 1z" />
		<path d="M4220 1650 c0 -20 25 -38 36 -27 8 7 -15 47 -26 47 -6 0 -10 -9 -10
-20z" />
		<path d="M2385 1604 c-45 -19 -64 -22 -77 -14 -27 16 -46 12 -82 -15 -18 -14
-38 -25 -45 -25 -6 0 -16 -11 -21 -25 -5 -14 -16 -25 -25 -25 -9 0 -20 -12
-25 -26 -13 -34 -13 -34 10 -34 11 0 20 4 20 9 0 14 59 46 110 60 129 36 250
57 300 54 140 -11 170 -12 174 -4 13 21 -28 33 -117 35 -69 1 -102 7 -120 19
-32 21 -28 21 -102 -9z" />
		<path d="M4010 1585 c0 -13 4 -14 20 -5 11 6 20 13 20 15 0 3 -9 5 -20 5 -11
0 -20 -7 -20 -15z" />
		<path d="M5004 1586 c-10 -27 1 -51 24 -54 15 -2 27 -14 33 -32 10 -28 33 -45
49 -35 5 3 -3 18 -17 33 -14 15 -29 38 -34 52 -12 34 -47 56 -55 36z" />
		<path d="M6362 1558 c3 -7 13 -15 22 -16 12 -3 17 1 14 10 -3 7 -13 15 -22 16
-12 3 -17 -1 -14 -10z" />
		<path d="M6014 1546 c-15 -12 -16 -16 -5 -30 7 -9 19 -16 25 -16 6 0 19 -14
28 -30 17 -30 38 -40 38 -19 0 6 -11 24 -25 41 -14 16 -25 36 -25 43 0 21 -15
26 -36 11z" />
		<path d="M7193 1543 c-20 -8 -15 -19 14 -32 21 -10 29 -9 41 3 26 26 -12 47
-55 29z" />
		<path d="M1405 1517 c-4 -10 -5 -21 -1 -24 10 -10 18 4 13 24 -4 17 -4 17 -12
0z" />
		<path d="M4492 1505 c-47 -25 -48 -35 -6 -35 47 0 69 12 61 34 -7 19 -23 19
-55 1z" />
		<path d="M3540 1491 c0 -12 5 -21 10 -21 6 0 10 6 10 14 0 8 -4 18 -10 21 -5
3 -10 -3 -10 -14z" />
		<path d="M7295 1467 c7 -56 31 -117 45 -117 19 0 10 50 -21 107 l-30 58 6 -48z" />
		<path d="M8347 1503 c-4 -3 -7 -15 -7 -25 0 -13 7 -18 25 -18 20 0 25 5 25 25
0 18 -5 25 -18 25 -10 0 -22 -3 -25 -7z" />
		<path d="M976 1492 c-3 -6 -1 -14 5 -17 15 -10 25 3 12 16 -7 7 -13 7 -17 1z" />
		<path d="M4365 1480 c3 -5 19 -10 36 -10 16 0 29 5 29 10 0 6 -16 10 -36 10
-21 0 -33 -4 -29 -10z" />
		<path d="M7176 1481 c-3 -5 0 -11 8 -14 15 -6 26 1 26 15 0 11 -27 10 -34 -1z" />
		<path d="M1308 1466 c-21 -15 -24 -46 -5 -46 20 0 35 14 39 34 4 24 -12 29
-34 12z" />
		<path d="M1370 1445 c0 -8 5 -15 10 -15 6 0 10 7 10 15 0 8 -4 15 -10 15 -5 0
-10 -7 -10 -15z" />
		<path d="M3706 1431 c-15 -16 -15 -19 -1 -31 8 -7 15 -21 15 -31 0 -10 4 -20
9 -23 14 -9 22 24 11 45 -8 13 -7 25 0 39 14 27 -10 28 -34 1z" />
		<path d="M5710 1412 c0 -5 7 -17 15 -28 14 -18 14 -18 15 9 0 17 -5 27 -15 27
-8 0 -15 -4 -15 -8z" />
		<path d="M7177 1382 c-20 -22 -23 -57 -4 -48 6 3 20 9 30 12 20 8 21 14 4 38
-12 16 -14 16 -30 -2z" />
		<path d="M7430 1352 c0 -21 7 -47 15 -58 8 -10 15 -27 15 -37 0 -19 46 -67 63
-67 5 0 25 10 44 21 25 16 53 22 106 23 70 2 72 3 69 26 -3 28 -33 57 -68 66
-19 5 -29 0 -45 -20 -28 -36 -44 -33 -75 14 -15 22 -34 40 -43 40 -9 0 -29 7
-45 15 -37 20 -36 21 -36 -23z" />
		<path d="M2538 1374 c-3 -3 -59 -7 -124 -9 -66 -1 -131 -8 -145 -13 -15 -6
-31 -7 -40 -1 -18 11 -56 12 -63 0 -17 -27 54 -72 79 -51 7 6 15 6 22 -1 7 -7
30 -9 63 -4 39 5 54 12 57 26 6 22 19 25 30 5 12 -21 52 -30 58 -13 8 19 101
21 109 1 8 -21 26 -17 26 6 0 13 7 20 20 20 24 0 27 25 4 34 -20 8 -89 8 -96
0z" />
		<path d="M2695 1371 c-8 -14 26 -60 45 -60 8 0 24 6 35 15 15 11 17 18 9 32
-12 19 -79 29 -89 13z" />
		<path d="M1285 1360 c-3 -5 -3 -15 0 -20 4 -6 2 -17 -5 -25 -9 -11 -7 -21 11
-44 26 -35 34 -38 43 -15 10 27 7 55 -11 85 -18 31 -28 35 -38 19z" />
		<path d="M1856 1318 c-9 -56 7 -70 29 -24 18 38 15 66 -8 66 -9 0 -17 -16 -21
-42z" />
		<path d="M4615 1350 c-4 -7 -24 -8 -55 -4 -54 7 -220 -13 -220 -27 0 -5 12 -9
28 -10 15 0 56 -2 92 -5 126 -8 190 -1 190 21 0 19 -27 38 -35 25z" />
		<path d="M5727 1343 c-15 -14 -6 -51 13 -56 25 -6 34 7 26 39 -6 23 -25 32
-39 17z" />
		<path d="M7068 1342 c-11 -2 -18 -13 -18 -28 0 -28 0 -28 46 -9 47 19 25 49
-28 37z" />
		<path d="M1695 1315 c29 -24 65 -33 65 -17 0 18 -38 42 -66 42 l-29 -1 30 -24z" />
		<path d="M3320 1283 c0 -14 19 -38 25 -32 8 8 -5 39 -16 39 -5 0 -9 -3 -9 -7z" />
		<path d="M8406 1279 c-12 -38 -15 -115 -5 -156 7 -32 7 -49 -1 -57 -16 -16
-12 -44 9 -56 25 -13 38 4 20 26 -9 12 -9 20 1 39 9 17 11 49 7 111 -6 82 -20
126 -31 93z" />
		<path d="M3383 1249 c-24 -7 -33 -15 -33 -31 0 -18 4 -20 31 -14 17 3 38 6 46
6 9 0 13 8 11 22 -4 26 -13 29 -55 17z" />
		<path d="M8946 1252 c-2 -4 -7 -38 -10 -77 -5 -52 -3 -77 8 -97 9 -18 11 -29
4 -36 -18 -18 -2 -40 26 -35 24 5 26 9 26 64 0 44 -4 59 -14 59 -31 0 -37 87
-7 98 19 7 18 8 -5 19 -13 6 -26 8 -28 5z" />
		<path d="M7770 1200 c0 -11 -14 -30 -31 -42 -42 -31 -72 -91 -64 -128 7 -30
-26 -108 -51 -123 -13 -7 -20 -37 -9 -37 10 0 105 72 105 80 0 5 11 21 24 37
13 16 26 42 28 58 2 22 8 30 23 30 18 0 20 5 16 50 -4 57 -16 95 -31 95 -5 0
-10 -9 -10 -20z" />
		<path d="M7058 1194 c-5 -4 -8 -28 -8 -53 0 -32 3 -42 11 -34 5 5 9 29 7 53
-2 23 -6 38 -10 34z" />
		<path d="M5731 1148 c1 -37 2 -39 9 -18 12 36 12 60 0 60 -5 0 -10 -19 -9 -42z" />
		<path d="M3514 1165 c-18 -8 -34 -24 -37 -37 -7 -25 -73 -58 -118 -58 -31 0
-59 28 -59 58 0 25 -18 30 -26 7 -4 -9 -19 -15 -38 -15 -39 -1 -75 -42 -56
-65 7 -8 25 -15 41 -15 15 0 31 -5 35 -11 3 -6 16 -8 28 -5 15 4 28 -1 40 -15
14 -17 24 -19 59 -13 23 4 60 7 82 6 52 -1 81 19 66 47 -14 25 -14 61 -1 61 6
0 8 10 4 24 -4 17 0 27 13 35 25 15 4 12 -33 -4z" />
		<path d="M1306 1137 c-9 -21 -14 -42 -11 -47 20 -32 52 21 36 60 -9 25 -9 25
-25 -13z" />
		<path d="M7380 1146 c0 -10 5 -36 12 -57 11 -40 31 -51 42 -24 3 8 14 15 25
15 25 0 34 14 26 40 -5 15 -15 20 -44 20 -20 0 -42 5 -49 12 -9 9 -12 8 -12
-6z" />
		<path d="M5320 1135 c0 -8 9 -15 20 -15 11 0 20 7 20 15 0 8 -9 15 -20 15 -11
0 -20 -7 -20 -15z" />
		<path d="M1494 1109 c-10 -17 13 -36 27 -22 12 12 4 33 -11 33 -5 0 -12 -5
-16 -11z" />
		<path d="M3073 1106 c-37 -17 -29 -39 10 -31 41 9 44 13 26 28 -10 10 -20 11
-36 3z" />
		<path d="M5117 1113 c-2 -5 -7 -21 -11 -37 -7 -27 -6 -28 11 -15 26 20 32 30
26 46 -6 14 -19 17 -26 6z" />
		<path d="M1650 1085 c0 -20 5 -25 24 -25 14 0 27 4 30 9 11 18 -6 41 -30 41
-19 0 -24 -5 -24 -25z" />
		<path d="M7516 1095 c-3 -8 0 -20 7 -27 41 -43 61 -108 37 -123 -5 -3 -10 -11
-10 -17 0 -6 11 -1 25 12 33 31 32 66 -6 123 -33 50 -43 56 -53 32z" />
		<path d="M3590 1068 c0 -15 35 -48 50 -48 15 0 12 15 -7 32 -30 25 -43 30 -43
16z" />
		<path d="M3045 1030 c-4 -6 -16 -8 -28 -5 -21 6 -21 5 -3 -9 21 -17 14 -33
-20 -46 -14 -6 -24 -18 -24 -30 0 -30 23 -24 50 13 13 17 29 36 37 40 7 4 13
17 13 27 0 21 -15 27 -25 10z" />
		<path d="M1210 1013 c0 -5 4 -15 10 -23 11 -18 25 -7 17 15 -6 15 -27 21 -27
8z" />
		<path d="M1555 1000 c-3 -11 -27 -32 -53 -47 -65 -37 -72 -43 -66 -58 12 -32
192 -47 202 -17 2 7 -6 12 -18 12 -17 0 -21 4 -15 18 16 38 15 49 -4 71 -12
13 -21 28 -21 33 0 16 -19 8 -25 -12z" />
		<path d="M5697 1004 c-19 -70 -19 -74 8 -74 24 0 26 2 19 38 -8 45 -20 61 -27
36z" />
		<path d="M7102 998 c-20 -20 -14 -29 21 -26 20 2 32 8 32 18 0 19 -36 25 -53
8z" />
		<path d="M1316 978 c-2 -7 -8 -28 -14 -46 -9 -27 -8 -38 6 -61 9 -14 26 -41
37 -59 11 -17 23 -32 27 -32 12 0 -1 65 -21 105 -15 28 -19 49 -15 72 4 22 2
33 -5 33 -6 0 -13 -6 -15 -12z" />
		<path d="M8936 975 c-3 -9 -1 -37 6 -64 9 -43 13 -47 34 -43 20 4 24 11 24 38
0 19 -5 34 -10 34 -6 0 -15 11 -20 25 -11 28 -25 32 -34 10z" />
		<path d="M1738 962 c-31 -18 -33 -29 -16 -67 14 -30 18 -31 60 -5 18 11 41 20
51 20 21 0 22 19 1 48 -18 27 -58 28 -96 4z" />
		<path d="M8406 961 c-11 -12 -15 -27 -11 -44 4 -14 1 -35 -5 -47 -13 -25 -13
-25 19 -35 22 -7 23 -5 19 31 -3 22 -1 52 3 69 11 37 -2 51 -25 26z" />
		<path d="M7213 963 c-27 -10 -13 -33 20 -33 40 0 51 8 36 27 -12 13 -33 16
-56 6z" />
		<path d="M5450 945 c-10 -12 -10 -19 -1 -28 9 -9 14 -9 21 3 22 34 4 54 -20
25z" />
		<path d="M5340 941 c0 -16 18 -22 45 -15 37 9 31 24 -10 24 -19 0 -35 -4 -35
-9z" />
		<path d="M3278 929 c-10 -5 -18 -16 -18 -23 0 -25 131 -49 145 -26 3 5 -19 21
-48 35 -61 29 -56 28 -79 14z" />
		<path d="M7292 909 c5 -16 68 -25 68 -10 0 6 -9 11 -19 11 -11 0 -27 3 -37 7
-12 4 -15 2 -12 -8z" />
		<path d="M3702 889 c-25 -10 -39 -36 -26 -49 5 -5 32 -6 59 -2 l51 7 -31 26
c-23 21 -35 25 -53 18z" />
		<path d="M5327 883 c-13 -12 -7 -23 13 -23 11 0 20 7 20 15 0 15 -21 21 -33 8z" />
		<path d="M7486 868 c-18 -26 -13 -33 30 -42 26 -6 32 -3 43 20 14 31 15 30
-26 38 -25 6 -34 3 -47 -16z" />
		<path d="M5053 814 c-3 -8 -1 -20 6 -27 14 -14 47 15 37 32 -10 16 -36 13 -43
-5z" />
		<path d="M8946 811 c-2 -9 -4 -37 -5 -63 -1 -49 13 -64 24 -28 3 11 13 20 21
20 21 0 17 17 -6 23 -28 7 -26 45 3 49 20 3 20 4 -5 9 -20 5 -29 2 -32 -10z" />
		<path d="M2965 795 c-3 -8 -7 -22 -10 -30 -7 -23 32 -19 45 5 6 11 8 25 5 30
-9 15 -35 12 -40 -5z" />
		<path d="M3060 801 c0 -5 7 -25 15 -45 21 -49 100 -90 156 -81 51 9 89 39 72
56 -10 10 -20 9 -50 -8 -37 -20 -39 -20 -80 -3 -23 10 -51 32 -64 49 -22 30
-49 48 -49 32z" />
		<path d="M5166 797 c-18 -14 -18 -15 -1 -45 23 -39 68 -60 90 -42 19 15 20 64
2 79 -24 19 -71 23 -91 8z" />
		<path d="M8410 796 c-8 -11 -9 -20 0 -36 14 -25 30 -17 30 15 0 30 -14 39 -30
21z" />
		<path d="M1893 758 c-18 -31 -20 -44 -12 -54 18 -22 26 -17 33 20 4 19 12 36
18 38 12 4 4 38 -9 38 -4 0 -18 -19 -30 -42z" />
		<path d="M5366 768 c-15 -21 -14 -24 12 -45 15 -12 44 -28 65 -34 20 -7 37
-18 37 -25 0 -24 -40 -82 -60 -87 -23 -6 -27 -32 -5 -41 18 -6 83 59 92 93 9
36 -19 75 -56 79 -26 3 -31 7 -31 31 0 15 5 32 12 39 9 9 5 12 -19 12 -22 0
-37 -7 -47 -22z" />
		<path d="M1340 755 c0 -8 0 -18 -1 -22 0 -4 4 -9 10 -11 6 -2 11 8 11 22 0 14
-4 26 -10 26 -5 0 -10 -7 -10 -15z" />
		<path d="M1615 750 c-3 -5 -1 -18 4 -27 6 -10 11 -13 11 -6 0 6 3 18 6 27 7
17 -11 22 -21 6z" />
		<path d="M3507 730 c-19 -16 -43 -30 -54 -30 -29 0 -57 -24 -50 -44 9 -22 40
-20 62 4 10 11 24 20 30 20 19 0 52 32 60 58 9 30 -8 28 -48 -8z" />
		<path d="M7066 735 c-25 -19 -19 -24 22 -18 18 3 31 10 29 17 -6 17 -30 17
-51 1z" />
		<path d="M7491 741 c-16 -10 -6 -31 15 -31 8 0 14 -4 14 -10 0 -5 4 -10 9 -10
5 0 3 14 -5 30 -9 17 -16 30 -17 30 -1 0 -8 -4 -16 -9z" />
		<path d="M7223 733 c-7 -2 -13 -9 -13 -15 0 -14 43 -6 48 10 4 12 -12 15 -35
5z" />
		<path d="M1675 710 c-15 -16 -15 -20 -3 -20 8 0 23 9 33 20 15 16 15 20 3 20
-8 0 -23 -9 -33 -20z" />
		<path d="M1455 674 c9 -9 18 -14 21 -11 9 9 -6 27 -22 27 -13 0 -13 -2 1 -16z" />
		<path d="M8962 651 c-8 -4 -13 -17 -12 -27 1 -11 1 -21 0 -24 -1 -3 -4 -27 -5
-53 -2 -45 -1 -48 19 -43 11 3 24 6 29 6 4 0 7 34 7 75 0 76 -6 87 -38 66z" />
		<path d="M6923 608 c-13 -6 -23 -19 -23 -28 0 -21 22 -32 68 -35 30 -2 32 0
32 31 0 43 -29 55 -77 32z" />
		<path d="M6807 593 c-11 -10 -8 -63 3 -63 6 0 10 16 10 35 0 36 -2 40 -13 28z" />
		<path d="M7112 578 c-14 -14 -16 -35 -2 -43 12 -8 53 33 45 45 -8 14 -29 12
-43 -2z" />
		<path d="M7410 561 c-13 -25 -13 -51 0 -51 8 0 40 51 40 65 0 14 -30 3 -40
-14z" />
		<path d="M7540 571 c0 -5 6 -14 14 -20 16 -13 32 2 21 19 -8 12 -35 13 -35 1z" />
		<path d="M5637 456 c-8 -21 3 -27 26 -15 16 9 17 13 6 20 -19 12 -26 11 -32
-5z" />
		<path d="M8967 423 c-4 -3 -7 -28 -7 -55 0 -41 3 -48 20 -48 18 0 20 7 20 55
0 39 -4 55 -13 55 -8 0 -17 -3 -20 -7z" />
		<path d="M8406 371 c-3 -5 0 -21 8 -36 13 -25 15 -25 20 -7 11 33 -12 69 -28
43z" />
		<path d="M5100 360 c0 -5 6 -10 14 -10 8 0 18 5 21 10 3 6 -3 10 -14 10 -12 0
-21 -4 -21 -10z" />
		<path d="M5486 361 c-3 -4 1 -16 8 -26 16 -23 46 -13 46 15 0 15 -7 20 -24 20
-14 0 -27 -4 -30 -9z" />
		<path d="M6950 331 c0 -15 6 -21 21 -21 25 0 22 33 -4 38 -12 2 -17 -3 -17
-17z" />
		<path d="M8964 265 c-9 -21 3 -45 21 -45 10 0 15 10 15 30 0 32 -26 43 -36 15z" />
		<path d="M8940 146 c0 -13 7 -29 15 -36 14 -12 14 -15 0 -30 -18 -20 -11 -30
22 -30 22 0 23 4 23 60 0 60 0 60 -30 60 -25 0 -30 -4 -30 -24z" />
		<path d="M8390 35 c0 -8 7 -15 15 -15 8 0 15 7 15 15 0 8 -7 15 -15 15 -8 0
-15 -7 -15 -15z" />
	</g>
</svg>
